<svg width="16" height="24" viewBox="0 0 16 24" fill="none" xmlns="http://www.w3.org/2000/svg">
<path d="M8.00016 5.08984C4.805 5.08984 2.20557 7.68928 2.20557 10.8844C2.20557 14.8496 7.39116 20.6708 7.61194 20.9167C7.81932 21.1477 8.18138 21.1473 8.38838 20.9167C8.60916 20.6708 13.7948 14.8496 13.7948 10.8844C13.7947 7.68928 11.1953 5.08984 8.00016 5.08984ZM8.00016 13.7998C6.3926 13.7998 5.08478 12.4919 5.08478 10.8844C5.08478 9.27684 6.39263 7.96903 8.00016 7.96903C9.60769 7.96903 10.9155 9.27687 10.9155 10.8844C10.9155 12.492 9.60769 13.7998 8.00016 13.7998Z" fill="#575756"/>
</svg>
