<svg width="17" height="17" viewBox="0 0 17 17" fill="none" xmlns="http://www.w3.org/2000/svg">
<g clip-path="url(#clip0_2_861)">
<mask id="mask0_2_861" style="mask-type:luminance" maskUnits="userSpaceOnUse" x="0" y="0" width="17" height="17">
<path d="M16.8 0.219971H0.799988V16.22H16.8V0.219971Z" fill="white"/>
</mask>
<g mask="url(#mask0_2_861)">
<path d="M15.2 1.81997H14.4V1.01997C14.4 0.539971 14.08 0.219971 13.6 0.219971C13.12 0.219971 12.8 0.539971 12.8 1.01997V1.81997H4.79999V1.01997C4.79999 0.539971 4.47999 0.219971 3.99999 0.219971C3.51999 0.219971 3.19999 0.539971 3.19999 1.01997V1.81997H1.59999C1.19999 1.81997 0.799988 2.13997 0.799988 2.61997V13.82C0.799988 14.3 1.19999 14.62 1.59999 14.62H6.47999C5.91999 13.66 5.59999 12.54 5.59999 11.42C5.59999 7.89997 8.47999 5.01997 12 5.01997C13.52 5.01997 14.88 5.57997 16 6.45997V2.61997C16 2.21997 15.6 1.81997 15.2 1.81997Z" fill="#D6D7D8"/>
<path d="M12 6.61987C9.36001 6.61987 7.20001 8.77987 7.20001 11.4199C7.20001 14.0599 9.36001 16.2199 12 16.2199C14.64 16.2199 16.8 14.0599 16.8 11.4199C16.8 8.77987 14.64 6.61987 12 6.61987ZM13.6 12.2199H12C11.52 12.2199 11.2 11.8999 11.2 11.4199V9.01987C11.2 8.53987 11.52 8.21987 12 8.21987C12.48 8.21987 12.8 8.53987 12.8 9.01987V10.6199H13.6C14.08 10.6199 14.4 10.9399 14.4 11.4199C14.4 11.8999 14.08 12.2199 13.6 12.2199Z" fill="#D6D7D8"/>
</g>
</g>
<defs>
<clipPath id="clip0_2_861">
<rect width="16" height="16" fill="white" transform="translate(0.799988 0.219971)"/>
</clipPath>
</defs>
</svg>
