<svg width="16" height="17" viewBox="0 0 16 17" fill="none" xmlns="http://www.w3.org/2000/svg">
<path d="M11.021 3.01171H10.5732V2.55859C10.5732 2.2997 10.3633 2.08984 10.1044 2.08984C9.84555 2.08984 9.63569 2.2997 9.63569 2.55859V3.01171H5.03662V2.55859C5.03662 2.2997 4.82676 2.08984 4.56787 2.08984C4.30898 2.08984 4.09912 2.2997 4.09912 2.55859V3.01171H3.65135C2.37328 3.01171 1.3335 4.05149 1.3335 5.32954V11.7719C1.3335 13.05 2.37328 14.0898 3.65135 14.0898H11.021C12.2991 14.0898 13.3388 13.05 13.3388 11.7719V5.32954C13.3388 4.05149 12.2991 3.01171 11.021 3.01171ZM3.65135 3.94921H4.09912V4.86327C4.09912 5.12216 4.30898 5.33202 4.56787 5.33202C4.82676 5.33202 5.03662 5.12216 5.03662 4.86327V3.94921H9.63571V4.86327C9.63571 5.12216 9.84557 5.33202 10.1045 5.33202C10.3634 5.33202 10.5732 5.12216 10.5732 4.86327V3.94921H11.021C11.7821 3.94921 12.4013 4.56843 12.4013 5.32954V5.77733H2.271V5.32954C2.271 4.56843 2.89021 3.94921 3.65135 3.94921ZM11.021 13.1523H3.65135C2.89021 13.1523 2.271 12.5331 2.271 11.7719V6.71483H12.4013V11.7719C12.4013 12.5331 11.7821 13.1523 11.021 13.1523ZM5.49757 8.55859C5.49757 8.81748 5.28771 9.02734 5.02882 9.02734H4.10695C3.84806 9.02734 3.6382 8.81748 3.6382 8.55859C3.6382 8.2997 3.84806 8.08984 4.10695 8.08984H5.02882C5.28768 8.08984 5.49757 8.2997 5.49757 8.55859ZM11.0342 8.55859C11.0342 8.81748 10.8243 9.02734 10.5654 9.02734H9.64354C9.38465 9.02734 9.17479 8.81748 9.17479 8.55859C9.17479 8.2997 9.38465 8.08984 9.64354 8.08984H10.5654C10.8243 8.08984 11.0342 8.2997 11.0342 8.55859ZM8.26319 8.55859C8.26319 8.81748 8.05333 9.02734 7.79444 9.02734H6.87257C6.61368 9.02734 6.40382 8.81748 6.40382 8.55859C6.40382 8.2997 6.61368 8.08984 6.87257 8.08984H7.79444C8.05331 8.08984 8.26319 8.2997 8.26319 8.55859ZM5.49757 11.3242C5.49757 11.5831 5.28771 11.7929 5.02882 11.7929H4.10695C3.84806 11.7929 3.6382 11.5831 3.6382 11.3242C3.6382 11.0653 3.84806 10.8554 4.10695 10.8554H5.02882C5.28768 10.8554 5.49757 11.0653 5.49757 11.3242ZM11.0342 11.3242C11.0342 11.5831 10.8243 11.7929 10.5654 11.7929H9.64354C9.38465 11.7929 9.17479 11.5831 9.17479 11.3242C9.17479 11.0653 9.38465 10.8554 9.64354 10.8554H10.5654C10.8243 10.8554 11.0342 11.0653 11.0342 11.3242ZM8.26319 11.3242C8.26319 11.5831 8.05333 11.7929 7.79444 11.7929H6.87257C6.61368 11.7929 6.40382 11.5831 6.40382 11.3242C6.40382 11.0653 6.61368 10.8554 6.87257 10.8554H7.79444C8.05331 10.8554 8.26319 11.0653 8.26319 11.3242Z" fill="#8E8E8E"/>
</svg>
