<svg width="21" height="23" viewBox="0 0 21 23" fill="none" xmlns="http://www.w3.org/2000/svg">
<path d="M9.11168 18.6058C9.10922 18.6058 9.10635 18.6058 9.10389 18.6058C9.00217 18.6037 8.9062 18.5603 8.83729 18.4856L1.80475 10.8387C1.68416 10.7074 1.67309 10.5097 1.7785 10.3658C1.88391 10.2222 2.07586 10.173 2.23746 10.2484L8.67405 13.2623C8.72819 13.2877 8.79217 13.2754 8.8336 13.2323L18.6519 2.97064C18.7848 2.8316 19.0022 2.81642 19.1531 2.93619C19.3041 3.05595 19.3389 3.27087 19.2335 3.43207L9.46688 18.3937C9.45293 18.4155 9.43653 18.4352 9.41848 18.4536L9.37541 18.4967C9.30528 18.5664 9.21012 18.6058 9.11168 18.6058Z" fill="#34D674"/>
</svg>
