<svg width="25" height="25" viewBox="0 0 25 25" fill="none" xmlns="http://www.w3.org/2000/svg">
<g clip-path="url(#clip0_2_813)">
<g clip-path="url(#clip1_2_813)">
<g clip-path="url(#clip2_2_813)">
<mask id="mask0_2_813" style="mask-type:luminance" maskUnits="userSpaceOnUse" x="0" y="0" width="25" height="25">
<path d="M24.72 0.220001H0.719971V24.22H24.72V0.220001Z" fill="white"/>
</mask>
<g mask="url(#mask0_2_813)">
<path d="M24.72 12.22C24.72 18.8475 19.3474 24.22 12.72 24.22C10.6718 24.22 8.74355 23.7069 7.05663 22.8022C5.66792 22.0575 4.94919 21.0474 3.95545 19.8397C3.01752 18.6999 1.77941 17.384 1.3107 15.9492C0.927312 14.7754 0.719971 13.5219 0.719971 12.22C0.719971 10.0045 1.32035 7.92929 2.36731 6.14807C4.45221 2.60096 8.30802 1.10096 12.72 1.10096C14.04 1.10096 15.3103 0.433197 16.4983 0.826938C21.2745 2.41004 24.72 6.91268 24.72 12.22Z" fill="url(#paint0_linear_2_813)"/>
<path d="M15.3907 1.90978C14.1828 1.50117 12.8888 1.27957 11.543 1.27957C8.74309 1.27957 6.40568 2.47703 4.36422 4.08437C3.73161 4.73355 2.93363 5.21576 2.46013 5.99444C1.98662 6.77312 1.59928 7.60997 1.31128 8.49185C1.36243 8.55392 1.41999 8.61195 1.48535 8.66357C1.78657 8.90141 2.18671 8.97308 2.55175 8.85458L5.81636 7.79463C6.2117 7.66625 6.64559 7.77049 6.93947 8.06442L7.7237 8.84865C8.04126 9.16621 8.13514 9.64428 7.9613 10.0584C7.71081 10.655 8.02403 11.3383 8.63956 11.5379L9.58309 11.8439C9.72535 11.8901 9.84991 11.9791 9.93966 12.0987C10.1767 12.4148 10.1173 12.8624 9.80592 13.1057L9.42446 13.4037C9.0686 13.6817 8.8606 14.1082 8.8606 14.5598V14.8967C8.8606 15.4752 9.14535 16.0165 9.62201 16.3442L10.2766 16.7942C10.336 16.8351 10.4026 16.8644 10.4729 16.8806L10.8591 16.9697C11.6736 17.1577 12.2976 17.8132 12.4453 18.636C12.5019 18.9511 12.4853 19.2749 12.3968 19.5825L11.754 21.8168C11.6484 22.184 11.9241 22.5502 12.3062 22.5502C12.4509 22.5502 12.5903 22.4956 12.6965 22.3974L15.1588 20.1188C15.5059 19.7977 15.7877 19.4127 15.989 18.9849L16.5388 17.8167C16.7206 17.4303 16.8338 17.0151 16.8733 16.5899L17.0871 14.2855C17.1803 13.2812 16.7423 12.3012 15.9319 11.7007C15.4348 11.3324 14.8326 11.1335 14.214 11.1335H13.7735C13.1178 11.1335 12.5649 10.6449 12.4843 9.99416C12.4262 9.52437 12.6282 9.06014 13.0116 8.78249L13.4986 8.42992C13.6669 8.30799 13.8621 8.22828 14.0677 8.19741L15.2622 8.01821C16.0918 7.89378 16.816 7.39002 17.2212 6.65552C17.7457 5.70494 17.7723 4.55802 17.2927 3.58409C16.9048 2.79661 16.2222 2.1911 15.3907 1.90978Z" fill="url(#paint1_linear_2_813)"/>
<path d="M12.72 0.220001C12.4031 0.220001 12.0891 0.232519 11.7783 0.256613C17.9656 0.736895 22.8367 5.90951 22.8367 12.22C22.8367 18.5305 17.9656 23.7031 11.7783 24.1834C12.0891 24.2075 12.4031 24.22 12.72 24.22C16.1777 24.22 19.2938 22.7576 21.4836 20.4176C21.4836 20.4176 24.6259 15.3897 24.6259 12.22C24.6259 9.90706 22.9319 5.91468 22.9319 5.91468C20.8171 2.49689 17.0344 0.220001 12.72 0.220001Z" fill="url(#paint2_linear_2_813)"/>
<path d="M18.4694 2.52447C18.0816 1.73699 17.399 1.13153 16.5675 0.850213C15.3596 0.441554 14.0656 0.220001 12.7198 0.220001C8.32084 0.220001 4.47481 2.58701 2.38568 6.11685C2.0927 6.61191 2.21072 7.24748 2.6622 7.604C2.96343 7.84184 3.36357 7.91351 3.7286 7.79501L6.99321 6.73506C7.38855 6.60668 7.82244 6.71092 8.11632 7.00485L8.90056 7.78908C9.21811 8.10664 9.31199 8.58471 9.13816 8.99878C8.88766 9.59543 9.20088 10.2787 9.81641 10.4784L10.76 10.7844C10.9022 10.8305 11.0268 10.9195 11.1165 11.0392C11.3536 11.3552 11.2941 11.8029 10.9828 12.0461L10.6013 12.3441C10.2454 12.6222 10.0375 13.0487 10.0375 13.5003V13.8372C10.0375 14.4156 10.3222 14.957 10.7989 15.2847L11.4534 15.7347C11.5129 15.7755 11.5795 15.8048 11.6498 15.8211L12.0359 15.9102C12.8505 16.0982 13.4745 16.7537 13.6222 17.5765C13.6787 17.8915 13.6621 18.2153 13.5736 18.523L12.9309 20.7573C12.8252 21.1246 13.1009 21.4907 13.4831 21.4907C13.6278 21.4907 13.7671 21.4361 13.8733 21.3378L16.3357 19.0592C16.6827 18.7381 16.9645 18.3532 17.1659 17.9254L17.7156 16.7571C17.8975 16.3707 18.0107 15.9556 18.0501 15.5304L18.2639 13.226C18.3571 12.2217 17.9191 11.2416 17.1087 10.6411C16.6117 10.2728 16.0095 10.074 15.3909 10.074H14.9503C14.2946 10.074 13.7418 9.58537 13.6612 8.93464C13.603 8.46485 13.8051 8.00061 14.1885 7.72296L14.6754 7.3704C14.8438 7.24847 15.039 7.16875 15.2446 7.13788L16.4391 6.95868C17.2686 6.83426 17.9929 6.33049 18.3981 5.596C18.9225 4.64532 18.9491 3.4984 18.4694 2.52447Z" fill="url(#paint3_linear_2_813)"/>
<path d="M5.5868 18.0718C4.77076 17.6666 4.1284 16.9805 3.77786 16.1395L3.39701 15.2259C3.24134 14.8524 2.894 14.5939 2.4916 14.5519C1.69301 14.4686 1.07513 15.2377 1.32784 15.9998C2.30167 18.9364 4.37918 21.3694 7.06878 22.8079L7.24276 21.0656C7.36704 19.8204 6.70765 18.6282 5.5868 18.0718Z" fill="url(#paint4_linear_2_813)"/>
<path d="M22.9313 5.91507L22.8561 6.05596C22.223 7.24312 22.3969 8.69907 23.2919 9.70363C23.8177 10.2938 24.1083 11.0567 24.1083 11.8472C24.1083 12.7723 23.7107 13.6528 23.0166 14.2645L22.078 15.0919C21.468 15.6296 21.1185 16.4035 21.1185 17.2166V17.4622C21.1185 17.9437 20.9957 18.4173 20.7618 18.8382L20.3437 19.5904C20.2383 19.78 20.2255 20.0073 20.309 20.2075C20.5075 20.6837 21.1306 20.7937 21.4831 20.417C23.4906 18.272 24.72 15.3897 24.72 12.22C24.72 9.90697 24.065 7.7473 22.9313 5.91507Z" fill="url(#paint5_linear_2_813)"/>
<path d="M22.9313 5.91507L22.8562 6.05596C22.223 7.24312 22.397 8.69907 23.2919 9.70363C23.8178 10.2938 24.1083 11.0567 24.1083 11.8472C24.1083 12.7723 23.7107 13.6528 23.0167 14.2645L22.592 14.6388C22.2313 16.401 21.4845 18.0223 20.4436 19.4107L20.3437 19.5904C20.2383 19.78 20.2255 20.0073 20.309 20.2075C20.5075 20.6837 21.1306 20.7937 21.4831 20.417C23.4907 18.272 24.7201 15.3897 24.7201 12.22C24.7201 9.90697 24.0651 7.7473 22.9313 5.91507Z" fill="url(#paint6_linear_2_813)"/>
<path d="M14.1885 7.72287L14.6754 7.37031C14.8438 7.24838 15.039 7.16866 15.2446 7.13779L16.4391 6.95859C17.2686 6.83417 17.9929 6.3304 18.3981 5.59591C18.9226 4.64532 18.9492 3.4984 18.4695 2.52447C18.0817 1.73699 17.3991 1.13153 16.5675 0.850213C15.3597 0.441554 14.0657 0.220001 12.7199 0.220001C12.4028 0.220001 12.0887 0.232707 11.7778 0.256848C12.7867 0.335154 13.7607 0.537789 14.6842 0.850213C15.5157 1.13153 16.1983 1.73699 16.5862 2.52447C17.0659 3.4984 17.0392 4.64532 16.5147 5.59591C16.1095 6.3304 15.3853 6.83417 14.5557 6.95859L13.3612 7.13779C13.1556 7.16861 12.9604 7.24838 12.7921 7.37031L12.3051 7.72287C11.9218 8.00052 11.7197 8.46475 11.7778 8.93454C11.8584 9.58527 12.4113 10.0739 13.067 10.0739H13.5075C14.1261 10.0739 14.7284 10.2728 15.2254 10.641C16.0357 11.2415 16.4738 12.2216 16.3806 13.2259L16.1668 15.5303C16.1274 15.9555 16.0141 16.3706 15.8323 16.757L15.2825 17.9253C15.0812 18.353 14.7994 18.738 14.4523 19.0592L13.0446 20.3618L12.9308 20.7571C12.8252 21.1244 13.1009 21.4905 13.483 21.4905C13.6277 21.4905 13.7671 21.436 13.8733 21.3377L16.3356 19.0591C16.6826 18.738 16.9645 18.353 17.1658 17.9252L17.7156 16.7569C17.8974 16.3705 18.0106 15.9554 18.0501 15.5302L18.2639 13.2258C18.357 12.2216 17.9191 11.2415 17.1087 10.641C16.6116 10.2727 16.0094 10.0739 15.3908 10.0739H14.9503C14.2946 10.0739 13.7417 9.58522 13.6611 8.93449C13.603 8.46471 13.805 8.00052 14.1885 7.72287Z" fill="url(#paint7_linear_2_813)"/>
<path d="M5.587 18.0717C4.77096 17.6666 4.1286 16.9804 3.77806 16.1395L3.39721 15.2258C3.24154 14.8524 2.8942 14.5939 2.4918 14.5519C2.2295 14.5245 1.98696 14.5896 1.78809 14.7157C1.97801 14.8351 2.13086 15.0114 2.22023 15.2258L2.60107 16.1395C2.95161 16.9804 3.59397 17.6666 4.41001 18.0717C5.53086 18.6282 6.19025 19.8203 6.06592 21.0656L5.95929 22.1338C6.31599 22.3775 6.68601 22.6031 7.06898 22.8079L7.24296 21.0656C7.36724 19.8204 6.70785 18.6282 5.587 18.0717Z" fill="url(#paint8_linear_2_813)"/>
</g>
</g>
</g>
</g>
<defs>
<linearGradient id="paint0_linear_2_813" x1="0.331265" y1="12.4613" x2="29.7654" y2="12.4613" gradientUnits="userSpaceOnUse">
<stop stop-color="#60B7FF"/>
<stop offset="0.5857" stop-color="#0182FC"/>
<stop offset="1" stop-color="#2740B0"/>
</linearGradient>
<linearGradient id="paint1_linear_2_813" x1="-5.02119" y1="11.9149" x2="26.4762" y2="11.9149" gradientUnits="userSpaceOnUse">
<stop stop-color="#60B7FF"/>
<stop offset="0.5857" stop-color="#0182FC"/>
<stop offset="1" stop-color="#2740B0"/>
</linearGradient>
<linearGradient id="paint2_linear_2_813" x1="-0.97487" y1="12.22" x2="25.0325" y2="12.22" gradientUnits="userSpaceOnUse">
<stop stop-color="#60B7FF"/>
<stop offset="0.5857" stop-color="#0182FC"/>
<stop offset="1" stop-color="#2740B0"/>
</linearGradient>
<linearGradient id="paint3_linear_2_813" x1="1.04921" y1="10.8553" x2="25.7117" y2="10.8553" gradientUnits="userSpaceOnUse">
<stop stop-color="#A2E62E"/>
<stop offset="0.5857" stop-color="#81B823"/>
<stop offset="1" stop-color="#037E73"/>
</linearGradient>
<linearGradient id="paint4_linear_2_813" x1="1.0493" y1="18.6768" x2="25.7118" y2="18.6768" gradientUnits="userSpaceOnUse">
<stop stop-color="#A2E62E"/>
<stop offset="0.5857" stop-color="#81B823"/>
<stop offset="1" stop-color="#037E73"/>
</linearGradient>
<linearGradient id="paint5_linear_2_813" x1="1.04944" y1="13.2791" x2="25.7119" y2="13.2791" gradientUnits="userSpaceOnUse">
<stop stop-color="#A2E62E"/>
<stop offset="0.5857" stop-color="#81B823"/>
<stop offset="1" stop-color="#037E73"/>
</linearGradient>
<linearGradient id="paint6_linear_2_813" x1="9.00243" y1="13.2791" x2="19.7639" y2="13.2791" gradientUnits="userSpaceOnUse">
<stop stop-color="#A2E62E"/>
<stop offset="0.5857" stop-color="#81B823"/>
<stop offset="1" stop-color="#037E73"/>
</linearGradient>
<linearGradient id="paint7_linear_2_813" x1="0.349567" y1="10.8553" x2="22.586" y2="10.8553" gradientUnits="userSpaceOnUse">
<stop stop-color="#A2E62E"/>
<stop offset="0.5857" stop-color="#81B823"/>
<stop offset="1" stop-color="#037E73"/>
</linearGradient>
<linearGradient id="paint8_linear_2_813" x1="-1.13253" y1="18.6768" x2="15.1823" y2="18.6768" gradientUnits="userSpaceOnUse">
<stop stop-color="#A2E62E"/>
<stop offset="0.5857" stop-color="#81B823"/>
<stop offset="1" stop-color="#037E73"/>
</linearGradient>
<clipPath id="clip0_2_813">
<rect width="24" height="24" fill="white" transform="translate(0.719971 0.220001)"/>
</clipPath>
<clipPath id="clip1_2_813">
<rect width="24" height="24" fill="white" transform="translate(0.719971 0.220001)"/>
</clipPath>
<clipPath id="clip2_2_813">
<rect width="24" height="24" fill="white" transform="translate(0.719971 0.220001)"/>
</clipPath>
</defs>
</svg>
