<svg width="21" height="21" viewBox="0 0 21 21" fill="none" xmlns="http://www.w3.org/2000/svg">
<path d="M18.8334 13.8006C18.8334 16.8339 17.0251 18.6423 13.9917 18.6423H13.0001C12.5417 18.6423 12.1667 18.2673 12.1667 17.8089V13.0006C12.1667 12.7756 12.3501 12.5839 12.5751 12.5839L14.0417 12.5589C14.1584 12.5506 14.2584 12.4673 14.2834 12.3506L14.5751 10.7589C14.6001 10.6089 14.4834 10.4673 14.3251 10.4673L12.5501 10.4923C12.3167 10.4923 12.1334 10.3089 12.1251 10.0839L12.0918 8.04226C12.0918 7.90893 12.2001 7.79227 12.3417 7.79227L14.3417 7.75893C14.4834 7.75893 14.5918 7.65061 14.5918 7.50894L14.5584 5.50892C14.5584 5.36725 14.4501 5.25893 14.3084 5.25893L12.0584 5.29227C10.6751 5.31727 9.57509 6.45059 9.60009 7.83393L9.64175 10.1256C9.65008 10.3589 9.46676 10.5423 9.23342 10.5506L8.23341 10.5673C8.09175 10.5673 7.98342 10.6756 7.98342 10.8173L8.00842 12.4006C8.00842 12.5423 8.11675 12.6506 8.25841 12.6506L9.25842 12.6339C9.49176 12.6339 9.67507 12.8173 9.68341 13.0423L9.7584 17.7923C9.76674 18.2589 9.39174 18.6423 8.92507 18.6423H7.00841C3.97508 18.6423 2.16675 16.8339 2.16675 13.7923V6.81726C2.16675 3.78393 3.97508 1.97559 7.00841 1.97559H13.9917C17.0251 1.97559 18.8334 3.78393 18.8334 6.81726V13.8006Z" fill="white"/>
</svg>
