<svg width="21" height="21" viewBox="0 0 21 21" fill="none" xmlns="http://www.w3.org/2000/svg">
<path d="M13.9915 1.97559H7.00817C3.97484 1.97559 2.1665 3.78393 2.1665 6.81726V13.7923C2.1665 16.8339 3.97484 18.6423 7.00817 18.6423H13.9832C17.0165 18.6423 18.8248 16.8339 18.8248 13.8006V6.81726C18.8332 3.78393 17.0248 1.97559 13.9915 1.97559ZM10.4998 13.5423C8.7165 13.5423 7.2665 12.0923 7.2665 10.3089C7.2665 8.52559 8.7165 7.07559 10.4998 7.07559C12.2832 7.07559 13.7332 8.52559 13.7332 10.3089C13.7332 12.0923 12.2832 13.5423 10.4998 13.5423ZM15.4332 6.04226C15.3915 6.14226 15.3332 6.23393 15.2582 6.31726C15.1748 6.39226 15.0832 6.45059 14.9832 6.49226C14.8832 6.53393 14.7748 6.55893 14.6665 6.55893C14.4415 6.55893 14.2332 6.47559 14.0748 6.31726C13.9998 6.23393 13.9415 6.14226 13.8998 6.04226C13.8582 5.94226 13.8332 5.83393 13.8332 5.72559C13.8332 5.61726 13.8582 5.50893 13.8998 5.40893C13.9415 5.30059 13.9998 5.21726 14.0748 5.13393C14.2665 4.94226 14.5582 4.85059 14.8248 4.90893C14.8832 4.91726 14.9332 4.93393 14.9832 4.95893C15.0332 4.97559 15.0832 5.00059 15.1332 5.03393C15.1748 5.05893 15.2165 5.10059 15.2582 5.13393C15.3332 5.21726 15.3915 5.30059 15.4332 5.40893C15.4748 5.50893 15.4998 5.61726 15.4998 5.72559C15.4998 5.83393 15.4748 5.94226 15.4332 6.04226Z" fill="white"/>
</svg>
