<svg width="61" height="61" viewBox="0 0 61 61" fill="none" xmlns="http://www.w3.org/2000/svg">
<g clip-path="url(#clip0_2_1905)">
<g clip-path="url(#clip1_2_1905)">
<path d="M53.5157 48.9061C52.8305 48.9061 52.1968 49.1071 51.6499 49.437L43.0824 41.1692C45.6134 38.1782 47.1461 34.3154 47.1461 30.0904C47.1461 25.8315 45.5867 21.9428 43.0192 18.942L51.1516 10.5154C51.7881 11.0661 52.6079 11.4111 53.5157 11.4111C55.5207 11.4111 57.1461 9.78574 57.1461 7.78063C57.1461 5.77559 55.5207 4.15017 53.5157 4.15017C51.5106 4.15017 49.8852 5.77559 49.8852 7.78063C49.8852 8.46634 50.0866 9.10051 50.4168 9.64762L42.2567 18.103C39.2625 15.0359 35.1305 13.0989 30.5419 12.9491V8.79075C31.8012 8.5295 32.7476 7.41456 32.7476 6.07796C32.7476 4.5474 31.5068 3.30664 29.9763 3.30664C28.4458 3.30664 27.2051 4.5474 27.2051 6.07796C27.2051 7.41428 28.1512 8.52888 29.4099 8.79047V12.9491C24.8686 13.0976 20.7709 14.9928 17.7843 18.0058L9.77988 10.2808C10.3304 9.6443 10.6753 8.82475 10.6753 7.9171C10.6753 5.91206 9.04995 4.28663 7.04477 4.28663C5.03973 4.28663 3.41431 5.91206 3.41431 7.9171C3.41431 9.9222 5.03973 11.5476 7.04477 11.5476C7.73007 11.5476 8.36382 11.3465 8.91065 11.0165L17.022 18.8445C14.4032 21.8584 12.8066 25.7841 12.8066 30.0904C12.8066 34.5753 14.5403 38.6455 17.356 41.7038L9.40925 49.9385C8.77273 49.3876 7.9527 49.0425 7.04477 49.0425C5.03973 49.0425 3.41431 50.6679 3.41431 52.673C3.41431 54.6781 5.03973 56.3035 7.04477 56.3035C9.04995 56.3035 10.6753 54.6781 10.6753 52.673C10.6753 51.9874 10.4741 51.3534 10.1439 50.8064L18.1463 42.5138C21.0985 45.3258 25.0457 47.0888 29.4099 47.2315V51.3903C28.1512 51.6519 27.2051 52.7665 27.2051 54.1028C27.2051 55.6334 28.4458 56.8741 29.9763 56.8741C31.5068 56.8741 32.7476 55.6334 32.7476 54.1028C32.7476 52.7662 31.8012 51.6513 30.5419 51.39V47.2316C35.1641 47.0807 39.3208 45.1141 42.3201 42.008L50.7808 50.1727C50.2301 50.8092 49.8852 51.6289 49.8852 52.5366C49.8852 54.5416 51.5106 56.167 53.5157 56.167C55.5207 56.167 57.1461 54.5416 57.1461 52.5366C57.1461 50.5315 55.5207 48.9061 53.5157 48.9061ZM38.0088 36.3665L25.955 34.2693L25.5214 34.3596L26.5753 39.4455C26.8483 40.7285 26.0203 41.9982 24.729 42.2729C24.5665 42.3061 24.404 42.3221 24.2437 42.3221C23.1271 42.3221 22.1288 41.5466 21.8977 40.4233L20.6998 34.6719C19.1814 34.141 17.9675 32.8526 17.6159 31.1661C17.3572 29.9273 17.596 28.6604 18.287 27.5979C18.9879 26.5372 20.0526 25.8136 21.2886 25.5565L24.0259 24.9866L34.2378 18.2555C34.9055 17.8172 35.7413 17.7376 36.4754 18.0405C37.2106 18.3445 37.7468 18.9907 37.9093 19.7701L38.4955 22.5867C40.3107 22.4916 41.9789 23.7173 42.3569 25.5494C42.5625 26.5256 42.3746 27.5255 41.8251 28.3624C41.3832 29.0382 40.7433 29.5312 39.9985 29.8089L40.7693 33.5126C40.9318 34.292 40.6986 35.099 40.1447 35.6712C39.6881 36.1427 39.0657 36.4019 38.4211 36.4019C38.2841 36.4019 38.147 36.3903 38.0088 36.3665Z" fill="#F2F2F2"/>
<path d="M24.4133 34.5898L23.2196 34.8383C22.8956 34.9057 22.5717 34.9383 22.2522 34.9383C22.1345 34.9383 22.0209 34.9168 21.9045 34.9081L23.0051 40.1935C23.1444 40.8696 23.8188 41.3018 24.4976 41.1647C25.173 41.0205 25.6108 40.3527 25.4671 39.6778L24.4133 34.5898Z" fill="#F2F2F2"/>
<path d="M22.9898 33.7302L25.2807 33.2527L23.8092 26.1875L21.5183 26.6646C20.5775 26.8603 19.766 27.412 19.2331 28.2185C18.7091 29.025 18.5267 29.9907 18.7235 30.9348C19.1292 32.8806 21.0307 34.1381 22.9898 33.7302Z" fill="#F2F2F2"/>
<path d="M36.8014 20.0007C36.7141 19.5828 36.4377 19.2495 36.043 19.087C35.6483 18.925 35.2183 18.9653 34.8612 19.2003L24.8825 25.7769L26.4284 33.2018L38.2032 35.2505C38.6244 35.3257 39.0346 35.1897 39.3309 34.8835C39.6283 34.5767 39.7488 34.161 39.6614 33.7431L36.8014 20.0007Z" fill="#F2F2F2"/>
<path d="M40.8785 27.7418C41.261 27.158 41.3926 26.4615 41.2488 25.78C41.1073 25.0967 40.7082 24.5103 40.1256 24.1277C39.7029 23.8507 39.2199 23.708 38.7274 23.7021L39.7652 28.6892C40.2157 28.486 40.6022 28.1637 40.8785 27.7418Z" fill="#F2F2F2"/>
</g>
</g>
<defs>
<clipPath id="clip0_2_1905">
<rect width="60" height="60" fill="white" transform="translate(0.280029 0.0898438)"/>
</clipPath>
<clipPath id="clip1_2_1905">
<rect width="60" height="60" fill="white" transform="translate(0.280029 0.0898438)"/>
</clipPath>
</defs>
</svg>
