<svg width="25" height="25" viewBox="0 0 25 25" fill="none" xmlns="http://www.w3.org/2000/svg">
<path d="M21.1004 6.83779C21.1001 6.83135 21.0994 6.8249 21.0983 6.81849C21.0733 6.78278 21.0426 6.75205 21.0168 6.71705C20.8301 6.46268 20.6324 6.21785 20.4238 5.98252C20.3666 5.91821 20.3095 5.85462 20.2509 5.79174C20.0361 5.56169 19.8108 5.34231 19.575 5.13369C19.5314 5.09509 19.4907 5.05511 19.4471 5.01722C18.866 4.5194 18.2297 4.08977 17.5508 3.73685C17.5236 3.72257 17.495 3.71043 17.4672 3.69611C17.1648 3.54246 16.8548 3.40435 16.5383 3.28239C16.4668 3.25669 16.4018 3.23236 16.3339 3.21093C16.0524 3.10949 15.7666 3.02065 15.4765 2.94441C15.3908 2.92155 15.305 2.89798 15.2179 2.87797C14.9321 2.81153 14.6463 2.76079 14.354 2.71934C14.2654 2.70649 14.1783 2.68932 14.0889 2.67861C13.3362 2.58713 12.5752 2.58713 11.8225 2.67861C11.7332 2.68932 11.646 2.70649 11.5574 2.71934C11.2652 2.76079 10.9765 2.81153 10.6935 2.87797C10.6063 2.89798 10.5206 2.92155 10.4349 2.94441C10.1428 3.02061 9.85706 3.10945 9.57744 3.21093C9.50598 3.23521 9.44096 3.25954 9.37309 3.28239C9.05663 3.40435 8.74657 3.54242 8.44422 3.69611C8.41634 3.71039 8.38778 3.72253 8.36061 3.73685C7.67942 4.0894 7.04101 4.51898 6.45786 5.01722C6.41428 5.05507 6.37354 5.09509 6.32996 5.13369C6.09179 5.34327 5.86647 5.56265 5.65404 5.79174C5.59547 5.85462 5.53828 5.91821 5.48113 5.98252C5.27202 6.21735 5.07433 6.46218 4.88811 6.71701C4.8624 6.75201 4.83167 6.78274 4.80664 6.81845C4.80337 6.82469 4.80048 6.83114 4.79805 6.83775C2.33359 10.2915 2.33359 14.929 4.79805 18.3828C4.80048 18.3894 4.80333 18.3958 4.80664 18.4021C4.83163 18.4378 4.86236 18.4685 4.88811 18.5035C5.07437 18.7579 5.27202 19.0027 5.48113 19.238C5.53828 19.3023 5.59547 19.3659 5.65404 19.4288C5.86935 19.6589 6.09463 19.8782 6.32996 20.0869C6.37354 20.1255 6.41428 20.1654 6.45786 20.2033C7.03896 20.7012 7.67523 21.1308 8.35417 21.4837C8.38134 21.498 8.40989 21.5101 8.43777 21.5244C8.74013 21.6781 9.05014 21.8162 9.36665 21.9382C9.43811 21.9639 9.50313 21.9882 9.57099 22.0096C9.8525 22.1111 10.1383 22.1999 10.4284 22.2761C10.5141 22.299 10.5999 22.3226 10.6871 22.3426C10.9729 22.409 11.2587 22.4598 11.551 22.5012C11.6395 22.5141 11.7267 22.5312 11.816 22.5419C12.5688 22.6334 13.3297 22.6334 14.0825 22.5419C14.1718 22.5312 14.259 22.5141 14.3476 22.5012C14.6398 22.4598 14.9285 22.409 15.2114 22.3426C15.2986 22.3226 15.3843 22.299 15.4701 22.2761C15.7626 22.1999 16.0484 22.1111 16.3275 22.0096C16.399 21.9853 16.464 21.961 16.5318 21.9382C16.8483 21.8162 17.1584 21.6781 17.4607 21.5244C17.4886 21.5102 17.5171 21.498 17.5443 21.4837C18.2233 21.1307 18.8595 20.7012 19.4406 20.2033C19.4842 20.1654 19.5249 20.1255 19.5685 20.0869C19.8067 19.8777 20.032 19.6584 20.2444 19.4288C20.303 19.3659 20.3602 19.3023 20.4174 19.238C20.6265 19.0027 20.8242 18.7579 21.0104 18.5035C21.0361 18.4685 21.0668 18.4378 21.0918 18.4021C21.0951 18.3958 21.098 18.3894 21.1004 18.3828C23.5649 14.929 23.5649 10.2916 21.1004 6.83779ZM20.2852 8.18968C20.9685 9.31507 21.3811 10.5838 21.4905 11.8958H17.2106C17.1582 11.0445 17.0243 10.2001 16.8105 9.37435C18.0195 9.14794 19.1897 8.74896 20.2852 8.18968ZM14.7706 4.23341C14.8106 4.24271 14.8492 4.25556 14.8892 4.26486C15.145 4.32489 15.3987 4.39347 15.6466 4.47921C15.6845 4.49206 15.7216 4.50709 15.7588 4.52066C16.0046 4.6064 16.2468 4.70143 16.484 4.80647C16.5255 4.82577 16.5662 4.84721 16.6077 4.86651C16.8349 4.97465 17.0568 5.09158 17.2736 5.21734L17.4165 5.30379C17.6222 5.42956 17.8223 5.56412 18.0166 5.70751C18.0667 5.74393 18.1167 5.77897 18.166 5.81895C18.3565 5.96184 18.539 6.11498 18.7133 6.27839C18.759 6.31983 18.8062 6.36057 18.8512 6.40344C19.0341 6.57706 19.2084 6.76068 19.3771 6.95075C19.3985 6.97574 19.4214 6.9986 19.4428 7.02221C18.4753 7.48328 17.4504 7.81251 16.3954 8.00107C15.9067 6.65752 15.2611 5.37635 14.472 4.18418C14.5712 4.20202 14.6727 4.21202 14.7706 4.23341ZM10.1205 11.8958C10.1769 11.1227 10.3085 10.3569 10.5135 9.60939C11.3231 9.70555 12.1377 9.75324 12.9529 9.75227C13.7689 9.75202 14.5842 9.70312 15.3944 9.60579C15.599 10.3545 15.7299 11.1215 15.7852 11.8958H10.1205ZM15.7852 13.3248C15.7289 14.0979 15.5972 14.8637 15.3922 15.6112C14.5827 15.5151 13.7681 15.4674 12.9529 15.4684C12.1369 15.4674 11.3217 15.5151 10.5113 15.6112C10.3069 14.8637 10.176 14.0979 10.1205 13.3248H15.7852ZM12.9529 4.50211C13.766 5.65455 14.4347 6.90235 14.9442 8.21756C14.2828 8.28781 13.6181 8.32311 12.9529 8.32331C12.2884 8.32252 11.6244 8.28702 10.9637 8.21685C11.4738 6.90252 12.1417 5.65513 12.9529 4.50211ZM6.52941 6.94999C6.69733 6.75992 6.87237 6.5763 7.05528 6.40268C7.10029 6.35981 7.14747 6.31908 7.19319 6.27763C7.36944 6.11712 7.55189 5.96397 7.7405 5.8182C7.78982 5.78031 7.8398 5.74673 7.88983 5.70675C8.08417 5.56386 8.28425 5.42927 8.49002 5.30304L8.63291 5.21659C8.84965 5.0899 9.07162 4.97293 9.29882 4.86575C9.34027 4.84645 9.38101 4.82502 9.42245 4.80572C9.65966 4.69854 9.9019 4.60351 10.1477 4.5199C10.1848 4.50634 10.2192 4.49131 10.2599 4.47845C10.5078 4.39556 10.76 4.32698 11.0173 4.2641C11.0573 4.25481 11.0959 4.24196 11.1366 4.23337C11.2345 4.21194 11.336 4.20193 11.4353 4.18406C10.6458 5.37643 9.99999 6.65786 9.51104 8.00166C8.45607 7.8131 7.43111 7.48387 6.46368 7.0228C6.48512 6.99785 6.50797 6.97499 6.52941 6.94999ZM5.62055 8.18968C6.7158 8.74892 7.88573 9.1479 9.09448 9.37435C8.881 10.2001 8.74724 11.0445 8.69508 11.8958H4.41519C4.52463 10.5838 4.93726 9.31507 5.62055 8.18968ZM5.62055 17.031C4.93722 15.9056 4.52459 14.6369 4.41519 13.3248H8.69508C8.74749 14.1762 8.88147 15.0206 9.09519 15.8463C7.88623 16.0727 6.71605 16.4717 5.62055 17.031ZM11.1352 20.9872C11.0952 20.9779 11.0566 20.9651 11.0166 20.9558C10.7607 20.8957 10.5071 20.8272 10.2591 20.7414C10.2213 20.7286 10.1841 20.7135 10.1469 20.7C9.90115 20.6142 9.65895 20.5192 9.4217 20.4142C9.38025 20.3949 9.33952 20.3734 9.29807 20.3541C9.07087 20.246 8.84889 20.1291 8.63215 20.0033L8.48927 19.9168C8.2835 19.7911 8.08342 19.6565 7.88908 19.5131C7.83905 19.4767 7.78906 19.4417 7.73975 19.4017C7.54922 19.2588 7.36676 19.1057 7.19244 18.9422C7.14672 18.9008 7.09954 18.8601 7.05453 18.8172C6.87162 18.6436 6.69729 18.46 6.52866 18.2699C6.50722 18.2449 6.48436 18.222 6.46293 18.1984C7.4304 17.7374 8.45531 17.4081 9.51029 17.2196C9.99903 18.5631 10.6446 19.8443 11.4338 21.0365C11.3345 21.0187 11.2331 21.0087 11.1352 20.9872ZM12.9529 20.7186C12.1398 19.5661 11.471 18.3183 10.9615 17.0031C12.2848 16.8607 13.6195 16.8607 14.9427 17.0031C14.4327 18.3174 13.7641 19.5655 12.9529 20.7186ZM19.3763 18.2706C19.2084 18.4607 19.0334 18.6443 18.8504 18.818C18.8054 18.8608 18.7583 18.9016 18.7125 18.943C18.5363 19.104 18.3538 19.2572 18.1652 19.4024C18.1159 19.4403 18.0659 19.4775 18.0159 19.5139C17.8216 19.6568 17.6215 19.7914 17.4157 19.9176L17.2728 20.004C17.0565 20.1303 16.8346 20.2472 16.6069 20.3549C16.5655 20.3742 16.5247 20.3956 16.4833 20.4149C16.2461 20.5221 16.0038 20.6171 15.758 20.7007C15.7209 20.7143 15.6866 20.7293 15.6459 20.7422C15.3979 20.8251 15.1457 20.8936 14.8885 20.9565C14.8485 20.9658 14.8099 20.9787 14.7692 20.9873C14.6713 21.0087 14.5698 21.0187 14.4705 21.0366C15.2596 19.8444 15.9052 18.5632 16.3939 17.2197C17.4489 17.4082 18.4739 17.7375 19.4413 18.1985C19.4206 18.2228 19.3978 18.2456 19.3763 18.2706ZM20.2852 17.031C19.1899 16.4718 18.02 16.0728 16.8112 15.8463C17.0247 15.0205 17.1585 14.1762 17.2106 13.3248H21.4905C21.3811 14.6369 20.9685 15.9056 20.2852 17.031Z" fill="black"/>
</svg>
