<svg width="12" height="17" viewBox="0 0 12 17" fill="none" xmlns="http://www.w3.org/2000/svg">
<path d="M5.99992 0.219971C2.80476 0.219971 0.205322 2.81941 0.205322 6.01453C0.205322 9.97978 5.39092 15.801 5.6117 16.0469C5.81907 16.2779 6.18114 16.2775 6.38813 16.0469C6.60892 15.801 11.7945 9.97978 11.7945 6.01453C11.7944 2.81941 9.195 0.219971 5.99992 0.219971ZM5.99992 8.92994C4.39235 8.92994 3.08454 7.62209 3.08454 6.01453C3.08454 4.40697 4.39238 3.09916 5.99992 3.09916C7.60745 3.09916 8.9153 4.407 8.9153 6.01456C8.9153 7.62213 7.60745 8.92994 5.99992 8.92994Z" fill="#D6D7D8"/>
</svg>
