<svg width="173" height="48" viewBox="0 0 173 48" fill="none" xmlns="http://www.w3.org/2000/svg">
<g clip-path="url(#clip0_2_1822)">
<g clip-path="url(#clip1_2_1822)">
<mask id="mask0_2_1822" style="mask-type:luminance" maskUnits="userSpaceOnUse" x="0" y="0" width="47" height="47">
<path d="M46.5001 23.4466C46.5001 10.6651 36.1386 0.303711 23.3572 0.303711C10.5758 0.303711 0.214355 10.6651 0.214355 23.4466C0.214355 36.228 10.5758 46.5894 23.3572 46.5894C36.1386 46.5894 46.5001 36.228 46.5001 23.4466Z" fill="white"/>
</mask>
<g mask="url(#mask0_2_1822)">
<path d="M46.5001 23.4466C46.5001 10.6651 36.1386 0.303711 23.3572 0.303711C10.5758 0.303711 0.214355 10.6651 0.214355 23.4466C0.214355 36.228 10.5758 46.5894 23.3572 46.5894C36.1386 46.5894 46.5001 36.228 46.5001 23.4466Z" fill="#FEFA17"/>
<mask id="mask1_2_1822" style="mask-type:luminance" maskUnits="userSpaceOnUse" x="1" y="3" width="46" height="44">
<path d="M46.5004 3.19629H1.66113V46.5892H46.5004V3.19629Z" fill="white"/>
</mask>
<g mask="url(#mask1_2_1822)">
<path d="M46.5004 46.5889H1.66113C3.62728 45.6184 5.51178 44.4838 7.29547 43.1966C10.6518 40.7747 15.2078 38.345 20.4473 37.8793C29.3544 37.0875 40.3877 43.6391 46.5004 46.5889Z" fill="black"/>
<path d="M24.0764 31.4902C22.178 26.9336 18.7609 24.9541 16.9537 24.7756C16.4359 24.7414 15.9168 24.8161 15.4283 24.995C14.9399 25.1739 14.4925 25.4532 14.1138 25.8158C14.3989 25.4624 14.7085 25.1303 15.0402 24.8222C14.5618 24.3797 13.9999 23.9528 13.9999 23.9528C14.501 24.1934 15.0478 24.5117 15.2452 24.6359C15.7641 24.1732 16.3176 23.7528 16.9006 23.3783C16.4014 22.9658 15.8763 22.5872 15.3287 22.245C16.0156 22.4775 16.6792 22.7765 17.3106 23.1377C18.0936 22.6792 18.9083 22.2797 19.7481 21.9423C19.4209 21.664 19.0787 21.4048 18.723 21.166C19.2143 21.343 19.6916 21.5584 20.1505 21.8103C21.0545 21.46 21.9805 21.1722 22.9222 20.9487C18.2598 19.6212 14.6149 21.1039 13.3392 22.4468C12.8211 23.0007 12.4933 23.7118 12.4052 24.4729C11.8489 23.1772 10.8764 22.1146 9.64882 21.461C6.86962 20.2733 4.09041 22.6021 4.09041 22.6021C5.24542 22.3738 6.44118 22.5147 7.51506 23.0057L8.54777 22.3149L7.84917 23.161C8.94252 23.738 9.93127 24.502 10.7726 25.4199C10.0732 24.9818 9.24543 24.8087 8.43386 24.9309C6.63422 25.2336 3.36144 27.4537 1.77441 32.1345C2.47313 31.4903 3.21671 30.8988 3.99929 30.3647C4.06347 29.8409 4.16241 29.3222 4.29544 28.8121C4.28949 29.2529 4.30978 29.6936 4.35618 30.1318C5.10583 29.6138 5.89273 29.1545 6.71015 28.7578C6.77615 28.0212 6.91351 27.2931 7.1202 26.5843C7.07644 27.2408 7.07644 27.8995 7.1202 28.556C7.74698 28.2764 8.39445 28.0479 9.05653 27.8729C9.05653 27.6322 9.12487 26.9957 9.21599 26.4368C9.21599 26.4368 9.21599 27.151 9.3223 27.803C9.57035 27.7461 9.82346 27.6995 10.0816 27.6633C9.17043 28.5793 8.25162 30.5587 8.33515 34.8126C8.33515 34.8126 8.87428 33.5473 9.56529 32.2277C9.43163 31.6974 9.36026 31.1528 9.35267 30.6053C9.35267 30.6053 9.5501 31.2496 9.77031 31.8318C9.97533 31.4437 10.1955 31.0555 10.4082 30.7217L10.4613 30.6364C10.3854 30.2172 10.2487 29.3788 10.2107 28.7966C10.2107 28.7966 10.4309 29.5729 10.6891 30.2793C11.2073 29.4624 11.8163 28.7096 12.504 28.0359C16.7411 35.4724 16.3007 46.3013 16.3007 46.3013L18.2902 46.1227C17.7434 35.7985 14.4631 29.6427 13.2405 27.6788C14.2272 27.4957 15.2381 27.4957 16.2247 27.6788C16.2247 27.019 16.2247 26.3048 16.2247 26.3048C16.3538 26.856 16.4449 27.4925 16.4753 27.7254C17.1488 27.8534 17.8115 28.035 18.4572 28.2688C18.4713 27.6024 18.4408 26.9359 18.3661 26.2738C18.6199 26.9674 18.8056 27.6851 18.9204 28.4163C19.7756 28.7428 20.6057 29.1347 21.4035 29.5884C21.4283 29.1489 21.4283 28.7083 21.4035 28.2688C21.5701 28.7763 21.702 29.2951 21.7983 29.8213C22.5959 30.321 23.3572 30.8787 24.0764 31.4902Z" fill="black"/>
<path d="M12.5196 23.2161C13.613 16.2997 17.6376 12.4029 20.0675 11.5257C20.7654 11.2968 21.5021 11.218 22.2313 11.2941C22.9605 11.3702 23.6663 11.5997 24.3046 11.9682C23.7957 11.5916 23.2602 11.2543 22.7024 10.959C23.2111 10.1828 23.8414 9.40645 23.8414 9.40645C23.2339 9.91102 22.5961 10.5398 22.3607 10.7727C21.4981 10.3249 20.6017 9.94842 19.6802 9.64709C20.2236 8.90157 20.8146 8.19363 21.4495 7.5279C20.5826 8.06968 19.7711 8.69901 19.0272 9.40645C17.7969 9.0549 16.5432 8.79546 15.276 8.63019C15.6298 8.12318 16.01 7.63602 16.415 7.17082C15.8044 7.592 15.2234 8.05629 14.6761 8.56033C13.3439 8.39089 12.0012 8.32343 10.6592 8.3585C16.62 4.89639 22.1101 5.66488 24.297 7.07767C25.19 7.65845 25.8789 8.51493 26.2637 9.52289C26.7041 7.61329 27.5242 5.57173 29.0353 4.43063C32.4068 1.86898 36.9932 4.08908 36.9932 4.08908C35.3348 4.17732 33.7435 4.78735 32.4372 5.83566L30.7894 5.2457L32.0347 6.16945C30.7252 7.33482 29.6208 8.72113 28.7695 10.2681C29.5904 9.44547 30.6626 8.93578 31.8069 8.82426C34.3887 8.63019 39.6282 10.5243 43.3414 16.3928C42.1613 15.7358 40.9384 15.1626 39.6813 14.6773C39.4251 13.9719 39.118 13.2869 38.7625 12.628C38.9155 13.2312 39.0346 13.8428 39.1194 14.4599C37.9165 14.0132 36.683 13.6578 35.429 13.3965C35.0973 12.4071 34.6673 11.4551 34.1457 10.5554C34.4116 11.4455 34.6171 12.3532 34.7608 13.2723C33.8075 13.1036 32.8426 13.0127 31.8753 13.0006C31.769 12.6823 31.488 11.8207 31.1767 11.091C31.1767 11.091 31.3817 12.0846 31.488 13.0006C31.1311 13.0006 30.7287 13.0006 30.4173 13.0627C31.936 14.0097 33.8875 16.4006 35.1784 22.2691C35.1784 22.2691 34.0166 20.7166 32.6346 19.1641C32.6457 18.3802 32.5615 17.598 32.384 16.8353C32.384 16.8353 32.3309 17.7901 32.2246 18.6673C31.8145 18.2093 31.3893 17.759 30.9792 17.3632L30.8805 17.27C30.8805 16.6645 30.7514 15.4768 30.6072 14.6618C30.6072 14.6618 30.6072 15.8106 30.4401 16.8663C29.4739 15.9436 28.4062 15.1387 27.2584 14.4677C23.9249 26.1116 28.1013 40.8605 28.1013 40.8605L25.3069 41.3107C22.6492 26.9732 25.1019 17.3554 26.127 14.2271C24.7136 14.3085 23.3254 14.6449 22.0266 15.2207C21.7532 14.3357 21.5482 13.3421 21.5482 13.3421C21.5549 14.0243 21.5954 14.7057 21.6697 15.3837C20.7853 15.7885 19.9345 16.2662 19.1259 16.812C18.8966 15.9086 18.7267 14.9906 18.6171 14.0641C18.5025 15.095 18.4872 16.135 18.5715 17.1691C17.5285 17.9274 16.5413 18.7628 15.6177 19.6686C15.4508 19.0686 15.3164 18.4596 15.2152 17.8444C15.1642 18.5965 15.1642 19.3513 15.2152 20.1033C14.2433 21.072 13.3423 22.1124 12.5196 23.2161Z" fill="black"/>
</g>
</g>
<path d="M60.4632 34.232V18.6234H54.4717V15.7177H69.5532V18.6234H63.5617V34.232H60.4632ZM70.3282 34.232V20.3463H73.0668V23.7277L72.7325 23.2905C72.9039 22.8277 73.1311 22.4077 73.4139 22.0305C73.7054 21.6448 74.0525 21.3277 74.4554 21.0791C74.7982 20.8477 75.1754 20.6677 75.5868 20.5391C76.0068 20.402 76.4354 20.3205 76.8725 20.2948C77.3096 20.2605 77.7339 20.2777 78.1454 20.3463V23.2391C77.7339 23.1191 77.2582 23.0805 76.7182 23.1234C76.1868 23.1663 75.7068 23.3163 75.2782 23.5734C74.8496 23.8048 74.4982 24.1005 74.2239 24.4605C73.9582 24.8205 73.7611 25.232 73.6325 25.6948C73.5039 26.1491 73.4396 26.642 73.4396 27.1734V34.232H70.3282ZM84.1553 34.6177C83.1524 34.6177 82.3038 34.4291 81.6096 34.052C80.9153 33.6663 80.3881 33.1563 80.0281 32.522C79.6767 31.8877 79.501 31.1891 79.501 30.4263C79.501 29.7577 79.6124 29.1577 79.8353 28.6263C80.0581 28.0863 80.401 27.6234 80.8638 27.2377C81.3267 26.8434 81.9267 26.522 82.6638 26.2734C83.221 26.0934 83.8724 25.9305 84.6181 25.7848C85.3724 25.6391 86.1867 25.5063 87.061 25.3863C87.9438 25.2577 88.8653 25.1205 89.8253 24.9748L88.7196 25.6048C88.7281 24.6448 88.5138 23.9377 88.0767 23.4834C87.6396 23.0291 86.9024 22.802 85.8653 22.802C85.2396 22.802 84.6353 22.9477 84.0524 23.2391C83.4696 23.5305 83.0624 24.032 82.831 24.7434L80.0024 23.8563C80.3453 22.682 80.9967 21.7391 81.9567 21.0277C82.9253 20.3163 84.2281 19.9605 85.8653 19.9605C87.0996 19.9605 88.1838 20.162 89.1181 20.5648C90.061 20.9677 90.7596 21.6277 91.2138 22.5448C91.4624 23.0334 91.6124 23.5348 91.6638 24.0491C91.7153 24.5548 91.741 25.1077 91.741 25.7077V34.232H89.0281V31.2234L89.4781 31.712C88.8524 32.7148 88.1196 33.452 87.2796 33.9234C86.4481 34.3863 85.4067 34.6177 84.1553 34.6177ZM84.7724 32.1491C85.4753 32.1491 86.0753 32.0248 86.5724 31.7763C87.0696 31.5277 87.4638 31.2234 87.7553 30.8634C88.0553 30.5034 88.2567 30.1648 88.3596 29.8477C88.5224 29.4534 88.6124 29.0034 88.6296 28.4977C88.6553 27.9834 88.6681 27.5677 88.6681 27.2505L89.6196 27.5334C88.6853 27.6791 87.8838 27.8077 87.2153 27.9191C86.5467 28.0305 85.9724 28.1377 85.4924 28.2405C85.0124 28.3348 84.5881 28.442 84.2196 28.562C83.8596 28.6905 83.5553 28.8405 83.3067 29.012C83.0581 29.1834 82.8653 29.3805 82.7281 29.6034C82.5996 29.8263 82.5353 30.0877 82.5353 30.3877C82.5353 30.7305 82.621 31.0348 82.7924 31.3005C82.9638 31.5577 83.2124 31.7634 83.5381 31.9177C83.8724 32.072 84.2838 32.1491 84.7724 32.1491ZM98.3403 34.232L93.3003 20.3463H96.3989L99.896 30.4134L103.38 20.3463H106.492L101.452 34.232H98.3403ZM109.056 18.2377V15.3963H112.155V18.2377H109.056ZM109.056 34.232V20.3463H112.155V34.232H109.056ZM116.263 34.232V15.332H119.362V34.232H116.263ZM127.096 34.6177C126.093 34.6177 125.245 34.4291 124.55 34.052C123.856 33.6663 123.329 33.1563 122.969 32.522C122.618 31.8877 122.442 31.1891 122.442 30.4263C122.442 29.7577 122.553 29.1577 122.776 28.6263C122.999 28.0863 123.342 27.6234 123.805 27.2377C124.268 26.8434 124.868 26.522 125.605 26.2734C126.162 26.0934 126.813 25.9305 127.559 25.7848C128.313 25.6391 129.128 25.5063 130.002 25.3863C130.885 25.2577 131.806 25.1205 132.766 24.9748L131.66 25.6048C131.669 24.6448 131.455 23.9377 131.018 23.4834C130.58 23.0291 129.843 22.802 128.806 22.802C128.18 22.802 127.576 22.9477 126.993 23.2391C126.41 23.5305 126.003 24.032 125.772 24.7434L122.943 23.8563C123.286 22.682 123.938 21.7391 124.898 21.0277C125.866 20.3163 127.169 19.9605 128.806 19.9605C130.04 19.9605 131.125 20.162 132.059 20.5648C133.002 20.9677 133.7 21.6277 134.155 22.5448C134.403 23.0334 134.553 23.5348 134.605 24.0491C134.656 24.5548 134.682 25.1077 134.682 25.7077V34.232H131.969V31.2234L132.419 31.712C131.793 32.7148 131.06 33.452 130.22 33.9234C129.389 34.3863 128.348 34.6177 127.096 34.6177ZM127.713 32.1491C128.416 32.1491 129.016 32.0248 129.513 31.7763C130.01 31.5277 130.405 31.2234 130.696 30.8634C130.996 30.5034 131.198 30.1648 131.3 29.8477C131.463 29.4534 131.553 29.0034 131.57 28.4977C131.596 27.9834 131.609 27.5677 131.609 27.2505L132.56 27.5334C131.626 27.6791 130.825 27.8077 130.156 27.9191C129.488 28.0305 128.913 28.1377 128.433 28.2405C127.953 28.3348 127.529 28.442 127.16 28.562C126.8 28.6905 126.496 28.8405 126.248 29.012C125.999 29.1834 125.806 29.3805 125.669 29.6034C125.54 29.8263 125.476 30.0877 125.476 30.3877C125.476 30.7305 125.562 31.0348 125.733 31.3005C125.905 31.5577 126.153 31.7634 126.479 31.9177C126.813 32.072 127.225 32.1491 127.713 32.1491Z" fill="white"/>
</g>
</g>
<defs>
<clipPath id="clip0_2_1822">
<rect width="173" height="47" fill="white" transform="translate(0 0.0898438)"/>
</clipPath>
<clipPath id="clip1_2_1822">
<rect width="173" height="47" fill="white" transform="translate(0 0.0898438)"/>
</clipPath>
</defs>
</svg>
