<svg width="134" height="37" viewBox="0 0 134 37" fill="none" xmlns="http://www.w3.org/2000/svg">
<g clip-path="url(#clip0_4_2255)">
<path d="M36 18.22C36 8.27888 27.9411 0.220001 18 0.220001C8.05887 0.220001 0 8.27888 0 18.22C0 28.1611 8.05887 36.22 18 36.22C27.9411 36.22 36 28.1611 36 18.22Z" fill="#FEFA17"/>
<mask id="mask0_4_2255" style="mask-type:luminance" maskUnits="userSpaceOnUse" x="1" y="2" width="35" height="35">
<path d="M36 2.47H1.125V36.22H36V2.47Z" fill="white"/>
</mask>
<g mask="url(#mask0_4_2255)">
<path d="M36 36.2199H1.125C2.65423 35.4651 4.11995 34.5827 5.50726 33.5815C8.11772 31.6978 11.6613 29.808 15.7365 29.4458C22.6642 28.83 31.2457 33.9257 36 36.2199Z" fill="black"/>
<path d="M18.5593 24.4769C17.0828 20.9329 14.4251 19.3933 13.0195 19.2544C12.6168 19.2278 12.213 19.2859 11.8331 19.4251C11.4532 19.5642 11.1052 19.7815 10.8106 20.0635C11.0325 19.7886 11.2732 19.5303 11.5312 19.2907C11.1591 18.9465 10.7221 18.6144 10.7221 18.6144C11.1119 18.8016 11.5371 19.0492 11.6906 19.1458C12.0942 18.7859 12.5247 18.4589 12.9782 18.1677C12.5899 17.8468 12.1815 17.5524 11.7556 17.2862C12.2898 17.467 12.806 17.6995 13.2971 17.9805C13.9061 17.6239 14.5397 17.3132 15.1929 17.0507C14.9385 16.8343 14.6723 16.6327 14.3956 16.447C14.7778 16.5846 15.149 16.7521 15.5059 16.9481C16.209 16.6757 16.9292 16.4518 17.6616 16.2779C14.0353 15.2455 11.2004 16.3987 10.2082 17.4432C9.80527 17.874 9.5503 18.427 9.4818 19.019C9.0491 18.0112 8.29274 17.1848 7.33791 16.6764C5.17631 15.7526 3.01471 17.5639 3.01471 17.5639C3.91305 17.3863 4.84309 17.496 5.67832 17.8779L6.48154 17.3405L5.93819 17.9986C6.78858 18.4474 7.5576 19.0417 8.212 19.7555C7.66798 19.4148 7.02417 19.2802 6.39295 19.3752C4.99323 19.6106 2.44774 21.3374 1.21338 24.978C1.75682 24.4769 2.33517 24.0169 2.94384 23.6015C2.99376 23.1941 3.07071 22.7907 3.17417 22.394C3.16955 22.7368 3.18533 23.0795 3.22142 23.4204C3.80448 23.0175 4.41651 22.6602 5.05229 22.3517C5.10362 21.7788 5.21045 21.2125 5.37121 20.6612C5.33717 21.1718 5.33717 21.6841 5.37121 22.1947C5.85871 21.9772 6.36229 21.7996 6.87724 21.6634C6.87724 21.4763 6.9304 20.9812 7.00127 20.5465C7.00127 20.5465 7.00127 21.1019 7.08395 21.6091C7.27688 21.5648 7.47375 21.5286 7.67456 21.5004C6.96583 22.2128 6.25121 23.7524 6.31617 27.061C6.31617 27.061 6.7355 26.0769 7.27295 25.0505C7.16899 24.6381 7.11348 24.2145 7.10758 23.7886C7.10758 23.7886 7.26114 24.2898 7.43241 24.7426C7.59187 24.4407 7.76315 24.1388 7.92851 23.8792L7.96986 23.8128C7.9108 23.4868 7.80449 22.8347 7.77496 22.3819C7.77496 22.3819 7.94623 22.9856 8.14704 23.5351C8.5501 22.8997 9.02377 22.3142 9.55857 21.7902C12.8541 27.5742 12.5116 35.9966 12.5116 35.9966L14.059 35.8577C13.6337 27.8278 11.0823 23.04 10.1315 21.5125C10.8989 21.37 11.6851 21.37 12.4525 21.5125C12.4525 20.9993 12.4525 20.4438 12.4525 20.4438C12.5529 20.8725 12.6238 21.3676 12.6474 21.5487C13.1712 21.6482 13.6866 21.7895 14.1889 21.9713C14.1998 21.4531 14.1761 20.9346 14.118 20.4197C14.3154 20.9592 14.4598 21.5174 14.5492 22.086C15.2143 22.3401 15.8599 22.6448 16.4804 22.9977C16.4997 22.6559 16.4997 22.3132 16.4804 21.9713C16.61 22.3661 16.7126 22.7696 16.7875 23.1788C17.4079 23.5675 18 24.0013 18.5593 24.4769Z" fill="black"/>
<path d="M9.57051 18.041C10.421 12.6615 13.5512 9.63063 15.4411 8.94838C15.9839 8.77036 16.5569 8.70904 17.1241 8.76826C17.6912 8.82749 18.2402 9.00598 18.7366 9.29253C18.3409 8.99967 17.9243 8.73732 17.4905 8.50764C17.8862 7.90389 18.3764 7.30013 18.3764 7.30013C17.9039 7.69257 17.4078 8.18161 17.2247 8.36274C16.5538 8.01442 15.8566 7.72166 15.1399 7.48729C15.5625 6.90745 16.0222 6.35683 16.516 5.83904C15.8417 6.26042 15.2106 6.7499 14.632 7.30013C13.6751 7.0267 12.7 6.82491 11.7144 6.69637C11.9895 6.30203 12.2853 5.92313 12.6003 5.56131C12.1254 5.88889 11.6734 6.25001 11.2478 6.64203C10.2117 6.51025 9.16733 6.45778 8.12354 6.48506C12.7598 3.7923 17.0298 4.39002 18.7307 5.48886C19.4253 5.94057 19.9611 6.60672 20.2604 7.39069C20.6029 5.90545 21.2408 4.31757 22.4161 3.43005C25.0384 1.43765 28.6056 3.1644 28.6056 3.1644C27.3157 3.23303 26.078 3.70749 25.062 4.52285L23.7804 4.06399L24.749 4.78246C23.7304 5.68886 22.8714 6.7671 22.2094 7.9703C22.8478 7.33047 23.6818 6.93405 24.5718 6.84731C26.5798 6.69637 30.655 8.16954 33.543 12.7339C32.6252 12.2229 31.674 11.7771 30.6963 11.3996C30.497 10.851 30.2582 10.3182 29.9817 9.80572C30.1006 10.2749 30.1933 10.7506 30.2593 11.2306C29.3237 10.8832 28.3643 10.6067 27.3889 10.4034C27.131 9.63393 26.7965 8.89348 26.3908 8.19369C26.5977 8.88598 26.7575 9.59204 26.8692 10.3068C26.1278 10.1756 25.3773 10.105 24.6249 10.0955C24.5422 9.84798 24.3237 9.17781 24.0816 8.61028C24.0816 8.61028 24.241 9.38309 24.3237 10.0955C24.0461 10.0955 23.7331 10.0955 23.491 10.1438C24.6722 10.8804 26.19 12.74 27.194 17.3044C27.194 17.3044 26.2904 16.0969 25.2155 14.8894C25.2242 14.2797 25.1587 13.6713 25.0206 13.0781C25.0206 13.0781 24.9793 13.8207 24.8966 14.5029C24.5777 14.1467 24.2469 13.7966 23.928 13.4886L23.8512 13.4162C23.8512 12.9453 23.7508 12.0215 23.6386 11.3876C23.6386 11.3876 23.6386 12.2811 23.5087 13.1022C22.7572 12.3846 21.9268 11.7585 21.0341 11.2366C18.4413 20.293 21.6896 31.7644 21.6896 31.7644L19.5162 32.1145C17.4491 20.9631 19.3568 13.4826 20.1541 11.0495C19.0547 11.1128 17.975 11.3744 16.9648 11.8223C16.7522 11.134 16.5928 10.3612 16.5928 10.3612C16.598 10.8918 16.6295 11.4217 16.6873 11.9491C15.9994 12.2639 15.3377 12.6354 14.7087 13.06C14.5304 12.3573 14.3982 11.6433 14.313 10.9227C14.2239 11.7245 14.212 12.5334 14.2776 13.3377C13.4664 13.9275 12.6985 14.5773 11.9802 15.2818C11.8503 14.8151 11.7458 14.3414 11.6671 13.863C11.6274 14.4479 11.6274 15.035 11.6671 15.6199C10.9112 16.3733 10.2104 17.1825 9.57051 18.041Z" fill="black"/>
</g>
<path d="M46.86 26.72V14.58H42.2V12.32H53.93V14.58H49.27V26.72H46.86ZM54.5327 26.72V15.92H56.6628V18.55L56.4028 18.21C56.5361 17.85 56.7128 17.5233 56.9328 17.23C57.1595 16.93 57.4295 16.6833 57.7428 16.49C58.0095 16.31 58.3027 16.17 58.6227 16.07C58.9494 15.9633 59.2827 15.9 59.6227 15.88C59.9627 15.8533 60.2928 15.8667 60.6128 15.92V18.17C60.2928 18.0767 59.9228 18.0467 59.5028 18.08C59.0895 18.1133 58.7161 18.23 58.3828 18.43C58.0495 18.61 57.7761 18.84 57.5628 19.12C57.3561 19.4 57.2027 19.72 57.1027 20.08C57.0027 20.4333 56.9528 20.8167 56.9528 21.23V26.72H54.5327ZM65.2872 27.02C64.5072 27.02 63.8472 26.8733 63.3072 26.58C62.7672 26.28 62.3572 25.8833 62.0772 25.39C61.8039 24.8967 61.6671 24.3533 61.6671 23.76C61.6671 23.24 61.7539 22.7733 61.9272 22.36C62.1005 21.94 62.3671 21.58 62.7271 21.28C63.0871 20.9733 63.5538 20.7233 64.1271 20.53C64.5604 20.39 65.0672 20.2633 65.6472 20.15C66.2339 20.0367 66.8672 19.9333 67.5472 19.84C68.2339 19.74 68.9504 19.6333 69.6971 19.52L68.8371 20.01C68.8438 19.2633 68.6771 18.7133 68.3371 18.36C67.9971 18.0067 67.4239 17.83 66.6172 17.83C66.1305 17.83 65.6604 17.9433 65.2071 18.17C64.7538 18.3967 64.4372 18.7867 64.2572 19.34L62.0572 18.65C62.3239 17.7367 62.8305 17.0033 63.5772 16.45C64.3305 15.8967 65.3439 15.62 66.6172 15.62C67.5772 15.62 68.4205 15.7767 69.1472 16.09C69.8805 16.4033 70.4238 16.9167 70.7771 17.63C70.9704 18.01 71.0871 18.4 71.1271 18.8C71.1671 19.1933 71.1872 19.6233 71.1872 20.09V26.72H69.0772V24.38L69.4272 24.76C68.9405 25.54 68.3705 26.1133 67.7172 26.48C67.0705 26.84 66.2605 27.02 65.2872 27.02ZM65.7671 25.1C66.3138 25.1 66.7804 25.0033 67.1671 24.81C67.5538 24.6167 67.8604 24.38 68.0871 24.1C68.3204 23.82 68.4771 23.5567 68.5571 23.31C68.6838 23.0033 68.7538 22.6533 68.7671 22.26C68.7871 21.86 68.7972 21.5367 68.7972 21.29L69.5372 21.51C68.8105 21.6233 68.1871 21.7233 67.6671 21.81C67.1471 21.8967 66.7005 21.98 66.3272 22.06C65.9539 22.1333 65.6238 22.2167 65.3371 22.31C65.0571 22.41 64.8204 22.5267 64.6271 22.66C64.4338 22.7933 64.2839 22.9467 64.1772 23.12C64.0772 23.2933 64.0271 23.4967 64.0271 23.73C64.0271 23.9967 64.0939 24.2333 64.2272 24.44C64.3605 24.64 64.5538 24.8 64.8071 24.92C65.0671 25.04 65.3871 25.1 65.7671 25.1ZM76.32 26.72L72.4 15.92H74.8099L77.5299 23.75L80.2399 15.92H82.66L78.7399 26.72H76.32ZM84.6547 14.28V12.07H87.0646V14.28H84.6547ZM84.6547 26.72V15.92H87.0646V26.72H84.6547ZM90.2602 26.72V12.02H92.6701V26.72H90.2602ZM98.6856 27.02C97.9056 27.02 97.2455 26.8733 96.7055 26.58C96.1655 26.28 95.7556 25.8833 95.4756 25.39C95.2023 24.8967 95.0655 24.3533 95.0655 23.76C95.0655 23.24 95.1523 22.7733 95.3256 22.36C95.499 21.94 95.7656 21.58 96.1256 21.28C96.4856 20.9733 96.9522 20.7233 97.5255 20.53C97.9589 20.39 98.4656 20.2633 99.0456 20.15C99.6323 20.0367 100.266 19.9333 100.946 19.84C101.632 19.74 102.349 19.6333 103.096 19.52L102.236 20.01C102.242 19.2633 102.076 18.7133 101.736 18.36C101.396 18.0067 100.822 17.83 100.016 17.83C99.5289 17.83 99.0589 17.9433 98.6055 18.17C98.1522 18.3967 97.8356 18.7867 97.6556 19.34L95.4555 18.65C95.7222 17.7367 96.229 17.0033 96.9756 16.45C97.729 15.8967 98.7422 15.62 100.016 15.62C100.976 15.62 101.819 15.7767 102.546 16.09C103.279 16.4033 103.822 16.9167 104.176 17.63C104.369 18.01 104.486 18.4 104.526 18.8C104.566 19.1933 104.586 19.6233 104.586 20.09V26.72H102.476V24.38L102.826 24.76C102.339 25.54 101.769 26.1133 101.116 26.48C100.469 26.84 99.659 27.02 98.6856 27.02ZM99.1656 25.1C99.7123 25.1 100.179 25.0033 100.566 24.81C100.952 24.6167 101.259 24.38 101.486 24.1C101.719 23.82 101.876 23.5567 101.956 23.31C102.082 23.0033 102.152 22.6533 102.166 22.26C102.186 21.86 102.196 21.5367 102.196 21.29L102.936 21.51C102.209 21.6233 101.586 21.7233 101.066 21.81C100.546 21.8967 100.099 21.98 99.7256 22.06C99.3523 22.1333 99.0223 22.2167 98.7356 22.31C98.4556 22.41 98.2189 22.5267 98.0255 22.66C97.8322 22.7933 97.6823 22.9467 97.5756 23.12C97.4756 23.2933 97.4255 23.4967 97.4255 23.73C97.4255 23.9967 97.4923 24.2333 97.6256 24.44C97.759 24.64 97.9522 24.8 98.2055 24.92C98.4655 25.04 98.7856 25.1 99.1656 25.1Z" fill="black"/>
</g>
<defs>
<clipPath id="clip0_4_2255">
<rect width="134" height="36" fill="white" transform="translate(0 0.220001)"/>
</clipPath>
</defs>
</svg>
