<svg width="17" height="13" viewBox="0 0 17 13" fill="none" xmlns="http://www.w3.org/2000/svg">
<path fill-rule="evenodd" clip-rule="evenodd" d="M2.80372 1.40378L7.12622 5.72816C8.06897 6.66909 9.61003 6.66991 10.5536 5.72816L14.8761 1.40378C14.9196 1.36025 14.9132 1.28856 14.8627 1.25334C14.4219 0.945875 13.8855 0.763594 13.3077 0.763594H4.37216C3.79431 0.763594 3.25791 0.945906 2.81703 1.25334C2.76653 1.28856 2.76019 1.36025 2.80372 1.40378ZM1.64859 3.48713C1.64859 3.03275 1.76125 2.60344 1.95969 2.22609C1.99072 2.16706 2.06938 2.15513 2.11653 2.20228L6.38431 6.47006C7.73578 7.8235 9.94322 7.82428 11.2955 6.47006L15.5633 2.20228C15.6104 2.15513 15.6891 2.16706 15.7201 2.22609C15.9185 2.60344 16.0312 3.03278 16.0312 3.48713V9.17266C16.0312 10.6756 14.8087 11.8962 13.3077 11.8962H4.37216C2.87116 11.8962 1.64859 10.6756 1.64859 9.17266V3.48713Z" fill="black"/>
</svg>
