<svg width="61" height="61" viewBox="0 0 61 61" fill="none" xmlns="http://www.w3.org/2000/svg">
<g clip-path="url(#clip0_2_1881)">
<g clip-path="url(#clip1_2_1881)">
<g clip-path="url(#clip2_2_1881)">
<mask id="mask0_2_1881" style="mask-type:luminance" maskUnits="userSpaceOnUse" x="0" y="0" width="61" height="61">
<path d="M60.5601 0.0898438H0.560059V60.0898H60.5601V0.0898438Z" fill="white"/>
</mask>
<g mask="url(#mask0_2_1881)">
<path d="M60.5601 40.6953C60.5601 31.9497 54.6673 24.3087 46.3575 22.0062C45.8352 9.83288 35.7699 0.0898438 23.4703 0.0898438C10.8374 0.0898438 0.560059 10.3671 0.560059 23C0.560059 27.1171 1.65595 31.1257 3.73694 34.645L0.644287 45.8254L11.8252 42.7332C15.0602 44.6462 18.7095 45.7238 22.476 45.8863C24.7781 54.1966 32.4195 60.0898 41.1656 60.0898C44.6565 60.0898 48.0512 59.1601 51.034 57.3936L60.4754 60.0051L57.8639 50.5637C59.6304 47.5809 60.5601 44.1862 60.5601 40.6953ZM12.38 38.932L5.68656 40.7836L7.53821 34.0902L7.11615 33.4301C5.12717 30.3182 4.07568 26.7115 4.07568 23C4.07568 12.3057 12.776 3.60546 23.4703 3.60546C34.1645 3.60546 42.8648 12.3057 42.8648 23C42.8648 33.6942 34.1645 42.3945 23.4703 42.3945C19.7587 42.3945 16.1524 41.343 13.0401 39.354L12.38 38.932ZM55.4336 54.9633L50.4669 53.5891L49.8036 54.0208C47.2323 55.6911 44.2449 56.5742 41.1656 56.5742C34.2918 56.5742 28.2516 52.1297 26.1116 45.7568C36.6374 44.5432 45.0135 36.1671 46.2275 25.6408C52.6 27.7813 57.0445 33.8215 57.0445 40.6953C57.0445 43.7746 56.1614 46.762 54.4911 49.3333L54.0594 49.9966L55.4336 54.9633Z" fill="#F2F2F2"/>
<path d="M21.7124 31.8477H25.2281V35.3633H21.7124V31.8477Z" fill="#F2F2F2"/>
<path d="M26.9859 17.6679C26.9859 18.6663 26.5794 19.5878 25.8415 20.263L21.7124 24.0423V28.332H25.2281V25.5904L28.215 22.8567C29.6679 21.5269 30.5015 19.6359 30.5015 17.6679C30.5015 13.7907 27.3475 10.6367 23.4703 10.6367C19.593 10.6367 16.439 13.7907 16.439 17.6679H19.9546C19.9546 15.7293 21.5316 14.1523 23.4703 14.1523C25.4089 14.1523 26.9859 15.7293 26.9859 17.6679Z" fill="#F2F2F2"/>
</g>
</g>
</g>
</g>
<defs>
<clipPath id="clip0_2_1881">
<rect width="60" height="60" fill="white" transform="translate(0.560059 0.0898438)"/>
</clipPath>
<clipPath id="clip1_2_1881">
<rect width="60" height="60" fill="white" transform="translate(0.560059 0.0898438)"/>
</clipPath>
<clipPath id="clip2_2_1881">
<rect width="60" height="60" fill="white" transform="translate(0.560059 0.0898438)"/>
</clipPath>
</defs>
</svg>
