<svg width="36" height="35" viewBox="0 0 36 35" fill="none" xmlns="http://www.w3.org/2000/svg">
<g clip-path="url(#clip0_2_1614)">
<g clip-path="url(#clip1_2_1614)">
<path fill-rule="evenodd" clip-rule="evenodd" d="M10.3683 1.40918H25.6317C26.9832 1.40918 28.0892 2.51519 28.0892 3.8666V19.13C28.0892 20.4814 26.9832 21.5874 25.6317 21.5874H10.3683C9.0169 21.5874 7.91089 20.4814 7.91089 19.13V3.8666C7.91089 2.51519 9.0169 1.40918 10.3683 1.40918Z" fill="#FFD164"/>
<path fill-rule="evenodd" clip-rule="evenodd" d="M14.7332 1.40918H21.2667V9.43536C21.2667 9.64489 21.1591 9.82417 20.9735 9.92332C20.79 10.0232 20.5811 10.0147 20.4054 9.90152L18.3044 8.52833C18.1153 8.40457 17.884 8.40457 17.6948 8.52833L15.5939 9.90152C15.4188 10.0154 15.2093 10.0232 15.0257 9.92332C14.8401 9.82347 14.7325 9.64418 14.7325 9.43536L14.7332 1.40918Z" fill="#FF4155"/>
<path fill-rule="evenodd" clip-rule="evenodd" d="M10.3683 1.40918H12.1739C10.8225 1.40918 9.71651 2.51519 9.71651 3.8666V19.13C9.71651 20.4814 10.8225 21.5874 12.1739 21.5874H10.3683C9.0169 21.5874 7.91089 20.4814 7.91089 19.13V3.8666C7.91089 2.51519 9.0169 1.40918 10.3683 1.40918Z" fill="#E6BC5A"/>
<path fill-rule="evenodd" clip-rule="evenodd" d="M2.86035 28.1569L4.7834 28.5696C12.2478 29.3607 16.1684 37.8354 27.8937 29.2791L32.4141 28.3123L30.4868 18.3666L26.7856 19.1576C19.7122 15.0717 14.0555 17.539 8.8798 19.0859L6.90051 18.6633L5.07309 18.2724L2.86035 28.1569Z" fill="#FFDAA2"/>
<path fill-rule="evenodd" clip-rule="evenodd" d="M30.4869 18.3663L26.7856 19.1574C23.6581 17.2617 19.8894 16.3667 15.0266 17.3377L11.3035 20.8076C8.5093 23.3909 13.299 23.6995 16.4237 20.5847C18.7637 25.0552 24.7388 25.193 27.8937 29.2788L32.4141 28.312L30.4869 18.3663Z" fill="#FBBD80"/>
<path fill-rule="evenodd" clip-rule="evenodd" d="M9.60685 30.7314L11.4722 29.0854C12.0565 28.5714 12.1142 27.67 11.5981 27.0864C11.082 26.5021 10.1827 26.4444 9.59701 26.9605L7.73162 28.6051C7.14732 29.1212 7.09178 30.0205 7.60576 30.6062C8.12256 31.1898 9.02326 31.2461 9.60685 30.7314Z" fill="#FBBD80"/>
<path fill-rule="evenodd" clip-rule="evenodd" d="M12.9059 31.6009L14.7713 29.9563C15.3556 29.4402 15.4133 28.5409 14.8972 27.9552C14.3811 27.3709 13.4818 27.3153 12.8961 27.8293L11.0307 29.4753C10.4464 29.9893 10.3908 30.8907 10.9048 31.4743C11.4209 32.0593 12.3216 32.117 12.9059 31.6009Z" fill="#FBBD80"/>
<path fill-rule="evenodd" clip-rule="evenodd" d="M15.5785 33.0215L17.4439 31.3769C18.0282 30.8629 18.0858 29.9615 17.5697 29.3779C17.0558 28.7922 16.1543 28.7359 15.5708 29.252L13.7054 30.8966C13.1197 31.4106 13.0634 32.312 13.5795 32.8956C14.0935 33.482 14.9942 33.5383 15.5785 33.0215Z" fill="#FBBD80"/>
<path fill-rule="evenodd" clip-rule="evenodd" d="M17.7631 31.0963L17.247 31.5527C16.6613 32.0688 16.605 32.9681 17.1197 33.5516C17.6358 34.1373 18.5365 34.1936 19.1208 33.6789L19.639 33.2205C20.2233 32.7065 20.281 31.8051 19.7649 31.2215C19.2474 30.6379 18.3488 30.5802 17.7631 31.0963Z" fill="#FBBD80"/>
<path fill-rule="evenodd" clip-rule="evenodd" d="M0.00170898 27.5464L2.11872 17.6401L6.90274 18.6624L4.78573 28.5688L0.00170898 27.5464Z" fill="#0593FC"/>
<path fill-rule="evenodd" clip-rule="evenodd" d="M29.1018 18.666L33.8858 17.6436L36.0028 27.55L31.2188 28.5724L29.1018 18.666Z" fill="#0593FC"/>
<path fill-rule="evenodd" clip-rule="evenodd" d="M2.11711 17.6411L3.11977 17.8569L1.00266 27.7604L0 27.5474L2.11711 17.6411Z" fill="#0584E3"/>
</g>
</g>
<defs>
<clipPath id="clip0_2_1614">
<rect width="36" height="34" fill="white" transform="translate(0 0.720215)"/>
</clipPath>
<clipPath id="clip1_2_1614">
<rect width="36" height="34" fill="white" transform="translate(0 0.720215)"/>
</clipPath>
</defs>
</svg>
