<svg width="17" height="17" viewBox="0 0 17 17" fill="none" xmlns="http://www.w3.org/2000/svg">
<path d="M13.9967 8.13721H2.66335C2.57495 8.13721 2.49016 8.17233 2.42765 8.23484C2.36514 8.29735 2.33002 8.38214 2.33002 8.47054V14.4706C2.33002 14.7358 2.43538 14.9902 2.62291 15.1777C2.81045 15.3652 3.0648 15.4706 3.33002 15.4706H13.33C13.5952 15.4706 13.8496 15.3652 14.0371 15.1777C14.2246 14.9902 14.33 14.7358 14.33 14.4706V8.47054C14.33 8.38214 14.2949 8.29735 14.2324 8.23484C14.1699 8.17233 14.0851 8.13721 13.9967 8.13721Z" fill="#FFC127"/>
<path d="M14.33 5.13721H2.33002C1.77774 5.13721 1.33002 5.58492 1.33002 6.13721V7.80387C1.33002 8.35616 1.77774 8.80387 2.33002 8.80387H14.33C14.8823 8.80387 15.33 8.35616 15.33 7.80387V6.13721C15.33 5.58492 14.8823 5.13721 14.33 5.13721Z" fill="#EE4D2D"/>
<path d="M10.1367 5.80088C9.46038 5.80088 8.71772 5.56154 8.37538 4.97054C8.04705 4.40388 8.12605 3.56354 8.58038 2.77688C9.05338 1.95854 9.77438 1.47021 10.51 1.47021H10.5134C11.077 1.4919 11.6116 1.72559 12.0103 2.12454C12.409 2.52349 12.6424 3.05826 12.6637 3.62188C12.6614 4.80021 11.5807 5.60721 10.5637 5.76821C10.4224 5.79022 10.2797 5.80114 10.1367 5.80088ZM10.51 2.13688C9.92772 2.13688 9.43038 2.63954 9.15772 3.11021C8.83238 3.67354 8.74972 4.28688 8.95205 4.63654C9.18872 5.04454 9.90405 5.19821 10.4607 5.10988C11.0977 5.00988 11.994 4.47988 11.997 3.62054C11.9727 3.2348 11.8084 2.87121 11.535 2.59804C11.2615 2.32486 10.8978 2.16087 10.512 2.13688H10.51Z" fill="#EE4D2D"/>
<path d="M6.50947 5.78595C6.3226 5.7867 6.13609 5.76962 5.95247 5.73495C5.12213 5.57262 3.8858 4.87162 3.8808 3.60662C3.90889 3.05053 4.14187 2.52454 4.53481 2.13006C4.92775 1.73558 5.45283 1.50055 6.0088 1.47029C6.77147 1.46329 7.52347 1.94429 8.02947 2.78495C8.50247 3.57195 8.60113 4.40795 8.28747 4.96662C7.94047 5.58562 7.16347 5.78595 6.50947 5.78595ZM4.54747 3.60362C4.55013 4.46095 5.48947 4.96395 6.0808 5.07962C6.67713 5.19695 7.46947 5.06195 7.70613 4.63962C7.8938 4.30629 7.7918 3.68329 7.4578 3.12762C7.16413 2.63895 6.62447 2.10995 6.02447 2.13595C5.6438 2.16405 5.28572 2.32732 5.01487 2.59627C4.74402 2.86523 4.57824 3.22316 4.54747 3.60362Z" fill="#EE4D2D"/>
<path d="M6.99095 14.0482C6.93003 14.0481 6.87031 14.0313 6.81826 13.9996C6.76622 13.968 6.72384 13.9227 6.69573 13.8686C6.66763 13.8146 6.65487 13.7539 6.65885 13.6931C6.66282 13.6323 6.68338 13.5737 6.71828 13.5238L9.39628 9.70084C9.42139 9.66496 9.45331 9.63439 9.49023 9.61085C9.52715 9.58732 9.56835 9.57128 9.61147 9.56367C9.65459 9.55606 9.69878 9.55701 9.74153 9.56647C9.78428 9.57594 9.82474 9.59373 9.86062 9.61884C9.89649 9.64394 9.92707 9.67586 9.9506 9.71279C9.97414 9.74971 9.99017 9.7909 9.99778 9.83402C10.0054 9.87714 10.0045 9.92133 9.99498 9.96408C9.98551 10.0068 9.96772 10.0473 9.94262 10.0832L7.26462 13.9062C7.23381 13.9501 7.19283 13.986 7.14519 14.0107C7.09754 14.0354 7.04463 14.0483 6.99095 14.0482Z" fill="white"/>
<path d="M6.8297 11.8035C6.59895 11.8035 6.37339 11.7351 6.18153 11.6069C5.98967 11.4787 5.84014 11.2965 5.75184 11.0833C5.66353 10.8702 5.64043 10.6356 5.68545 10.4093C5.73046 10.183 5.84158 9.97508 6.00474 9.81192C6.1679 9.64876 6.37578 9.53764 6.60209 9.49263C6.8284 9.44761 7.06298 9.47072 7.27616 9.55902C7.48934 9.64732 7.67155 9.79685 7.79974 9.98871C7.92794 10.1806 7.99636 10.4061 7.99636 10.6369C7.99636 10.9463 7.87345 11.243 7.65465 11.4618C7.43586 11.6806 7.13911 11.8035 6.8297 11.8035ZM6.8297 10.1369C6.7308 10.1369 6.63413 10.1662 6.55191 10.2211C6.46969 10.2761 6.4056 10.3542 6.36776 10.4455C6.32991 10.5369 6.32001 10.6374 6.3393 10.7344C6.3586 10.8314 6.40622 10.9205 6.47614 10.9904C6.54607 11.0603 6.63516 11.108 6.73215 11.1273C6.82914 11.1466 6.92967 11.1367 7.02104 11.0988C7.1124 11.061 7.19049 10.9969 7.24543 10.9147C7.30037 10.8324 7.3297 10.7358 7.3297 10.6369C7.3297 10.5043 7.27702 10.3771 7.18325 10.2833C7.08948 10.1896 6.9623 10.1369 6.8297 10.1369Z" fill="white"/>
<path d="M9.8297 14.137C9.59895 14.137 9.37339 14.0686 9.18153 13.9404C8.98967 13.8122 8.84014 13.63 8.75184 13.4168C8.66353 13.2036 8.64043 12.969 8.68545 12.7427C8.73046 12.5164 8.84158 12.3085 9.00474 12.1454C9.1679 11.9822 9.37578 11.8711 9.60209 11.8261C9.8284 11.7811 10.063 11.8042 10.2762 11.8925C10.4893 11.9808 10.6715 12.1303 10.7997 12.3222C10.9279 12.514 10.9963 12.7396 10.9963 12.9703C10.9963 13.2797 10.8734 13.5765 10.6546 13.7953C10.4358 14.0141 10.1391 14.137 9.8297 14.137ZM9.8297 12.4703C9.7308 12.4703 9.63413 12.4996 9.55191 12.5546C9.46969 12.6095 9.4056 12.6876 9.36776 12.779C9.32991 12.8703 9.32001 12.9709 9.3393 13.0679C9.3586 13.1649 9.40622 13.2539 9.47614 13.3239C9.54607 13.3938 9.63516 13.4414 9.73215 13.4607C9.82914 13.48 9.92967 13.4701 10.021 13.4323C10.1124 13.3944 10.1905 13.3303 10.2454 13.2481C10.3004 13.1659 10.3297 13.0692 10.3297 12.9703C10.3297 12.8377 10.277 12.7105 10.1832 12.6168C10.0895 12.523 9.9623 12.4703 9.8297 12.4703Z" fill="white"/>
</svg>
