<svg width="32" height="33" viewBox="0 0 32 33" fill="none" xmlns="http://www.w3.org/2000/svg">
<g clip-path="url(#clip0_2_1635)">
<g clip-path="url(#clip1_2_1635)">
<g clip-path="url(#clip2_2_1635)">
<mask id="mask0_2_1635" style="mask-type:luminance" maskUnits="userSpaceOnUse" x="0" y="0" width="32" height="33">
<path d="M32 0.720215H0V32.7202H32V0.720215Z" fill="white"/>
</mask>
<g mask="url(#mask0_2_1635)">
<path d="M32.0001 5.32267V10.0588H26.0618V5.32267C26.0589 3.68551 27.3838 2.35614 29.0207 2.35352H29.0356C30.671 2.35352 31.9972 3.67793 32.0001 5.31327V5.32267Z" fill="#00ACEA"/>
<path d="M7.67056 2.35352H29.0208C27.3839 2.35614 26.059 3.68551 26.0618 5.32267V27.0781C26.0592 29.2802 24.2734 31.0639 22.0714 31.0639H22.0593C21.9671 31.0639 21.8759 31.0605 21.785 31.054C19.693 30.9077 18.0712 29.1668 18.0736 27.0695V24.4897H4.70142V24.4541L4.84251 5.14605C4.84251 3.59093 6.11545 2.35352 7.67056 2.35352ZM19.3055 11.7945V7.97803L15.0976 5.91107L10.8905 7.97202V11.7945C10.8905 12.7725 11.5239 13.9704 12.3325 14.5222L15.0976 16.4076L17.8627 14.5222C18.6714 13.9704 19.3055 12.7725 19.3055 11.7945Z" fill="#00EFD1"/>
<path d="M21.785 31.054L21.7845 31.064H3.99048C1.78844 31.064 0.00261277 29.2802 0 27.0782V24.4897H18.0736V27.0696C18.0712 29.1668 19.6929 30.9077 21.785 31.054Z" fill="#00ACEA"/>
<path d="M19.3054 7.97809V11.7946C19.3054 12.7725 18.6713 13.9705 17.8627 14.5223L15.0976 16.4077L12.3325 14.5223C11.5238 13.9705 10.8905 12.7725 10.8905 11.7946V7.97208L15.0976 5.91113L19.3054 7.97809Z" fill="#00ACEA"/>
<path d="M14.572 12.7591H14.5707C14.4283 12.7586 14.2919 12.7016 14.1918 12.6005L13.1148 11.5128C12.9782 11.3775 12.9246 11.1792 12.9748 10.9931C13.025 10.8074 13.171 10.6629 13.3573 10.6145C13.5436 10.5662 13.7414 10.6219 13.8754 10.7598L14.5741 11.4653L16.3228 9.71731C16.5318 9.50829 16.8707 9.50829 17.0795 9.71731C17.2885 9.92633 17.2885 10.265 17.0795 10.474L14.9506 12.6023C14.85 12.7027 14.7139 12.7591 14.572 12.7591Z" fill="#FEDB41"/>
<path d="M21.7524 19.4511H8.91009C8.61459 19.4511 8.375 19.2118 8.375 18.916C8.375 18.6205 8.61459 18.3809 8.91009 18.3809H21.7524C22.0479 18.3809 22.2875 18.6205 22.2875 18.916C22.2875 19.2118 22.0479 19.4511 21.7524 19.4511Z" fill="#00ACEA"/>
<path d="M21.7524 21.9257H8.91009C8.61459 21.9257 8.375 21.6864 8.375 21.3906C8.375 21.0951 8.61459 20.8555 8.91009 20.8555H21.7524C22.0479 20.8555 22.2875 21.0951 22.2875 21.3906C22.2875 21.6864 22.0479 21.9257 21.7524 21.9257Z" fill="#00ACEA"/>
</g>
</g>
</g>
</g>
<defs>
<clipPath id="clip0_2_1635">
<rect width="32" height="32" fill="white" transform="translate(0 0.720215)"/>
</clipPath>
<clipPath id="clip1_2_1635">
<rect width="32" height="32" fill="white" transform="translate(0 0.720215)"/>
</clipPath>
<clipPath id="clip2_2_1635">
<rect width="32" height="32" fill="white" transform="translate(0 0.720215)"/>
</clipPath>
</defs>
</svg>

