<svg width="28" height="35" viewBox="0 0 28 35" fill="none" xmlns="http://www.w3.org/2000/svg">
<g clip-path="url(#clip0_2_1565)">
<path d="M27.5563 7.42676V16.483C27.5563 24.6955 21.9876 31.8955 14.0001 33.9205C6.0126 31.8955 0.443848 24.6955 0.443848 16.483V7.42676C6.6876 6.69551 10.2876 4.33301 14.0001 1.52051C17.7126 4.33301 21.3126 6.69551 27.5563 7.42676Z" fill="#FFD15D"/>
<path d="M14 30.3204C7.98125 28.4079 3.875 22.8391 3.875 16.4829V10.3517C8.09375 9.45166 11.1875 7.70791 14 5.79541C16.8687 7.76416 19.9062 9.45166 24.125 10.3517V16.4829C24.125 22.8391 20.0187 28.4079 14 30.3204Z" fill="#F5B92D"/>
<path d="M11.75 23.2329L8.375 19.9141L10.1188 18.2266L11.75 19.8579L17.8813 13.7266L19.625 15.4141L11.75 23.2329Z" fill="white"/>
</g>
<defs>
<clipPath id="clip0_2_1565">
<rect width="28" height="34" fill="white" transform="translate(0 0.720215)"/>
</clipPath>
</defs>
</svg>
