<svg width="13" height="12" viewBox="0 0 13 12" fill="none" xmlns="http://www.w3.org/2000/svg">
<g clip-path="url(#clip0_30_70)">
<path d="M12.1485 4.58597C12.0733 4.35354 11.8672 4.18846 11.6233 4.16648L8.31025 3.86566L7.00021 0.799381C6.90362 0.574662 6.68363 0.429199 6.4392 0.429199C6.19478 0.429199 5.97479 0.574662 5.8782 0.799906L4.56816 3.86566L1.25465 4.16648C1.01119 4.18899 0.805566 4.35354 0.729988 4.58597C0.65441 4.81839 0.724208 5.07332 0.908379 5.23403L3.4126 7.43024L2.67416 10.6831C2.62013 10.9222 2.71296 11.1695 2.9114 11.3129C3.01807 11.39 3.14287 11.4292 3.26871 11.4292C3.37722 11.4292 3.48485 11.3999 3.58144 11.3421L6.4392 9.63417L9.29592 11.3421C9.50496 11.4679 9.76847 11.4564 9.96648 11.3129C10.165 11.169 10.2578 10.9217 10.2037 10.6831L9.46529 7.43024L11.9696 5.23446C12.1537 5.07332 12.224 4.81883 12.1485 4.58597Z" fill="#FFC700"/>
</g>
<defs>
<clipPath id="clip0_30_70">
<rect width="12" height="12" fill="white" transform="translate(0.699951)"/>
</clipPath>
</defs>
</svg>
