<svg width="25" height="25" viewBox="0 0 25 25" fill="none" xmlns="http://www.w3.org/2000/svg">
<g clip-path="url(#clip0_2_1966)">
<path d="M12.98 16.22C15.1891 16.22 16.98 14.4291 16.98 12.22C16.98 10.0109 15.1891 8.22 12.98 8.22C10.7708 8.22 8.97998 10.0109 8.97998 12.22C8.97998 14.4291 10.7708 16.22 12.98 16.22Z" stroke="black" stroke-width="1.5" stroke-linejoin="round"/>
<path d="M20.98 12.22H21.98" stroke="black" stroke-width="1.5" stroke-linecap="round"/>
<path d="M3.97998 12.22H4.97998" stroke="black" stroke-width="1.5" stroke-linecap="round"/>
<path d="M12.98 20.22V21.22" stroke="black" stroke-width="1.5" stroke-linecap="round"/>
<path d="M12.98 3.22V4.22" stroke="black" stroke-width="1.5" stroke-linecap="round"/>
<path d="M18.6367 17.8767L19.3438 18.5838" stroke="black" stroke-width="1.5" stroke-linecap="round"/>
<path d="M6.61597 5.85599L7.32307 6.56309" stroke="black" stroke-width="1.5" stroke-linecap="round"/>
<path d="M7.3232 17.8767L6.61609 18.5838" stroke="black" stroke-width="1.5" stroke-linecap="round"/>
<path d="M19.3439 5.85599L18.6368 6.56309" stroke="black" stroke-width="1.5" stroke-linecap="round"/>
</g>
<defs>
<clipPath id="clip0_2_1966">
<rect width="24" height="24" fill="white" transform="translate(0.97998 0.22)"/>
</clipPath>
</defs>
</svg>
