<svg width="36" height="37" viewBox="0 0 36 37" fill="none" xmlns="http://www.w3.org/2000/svg">
<g clip-path="url(#clip0_2_1577)">
<g clip-path="url(#clip1_2_1577)">
<g clip-path="url(#clip2_2_1577)">
<mask id="mask0_2_1577" style="mask-type:luminance" maskUnits="userSpaceOnUse" x="0" y="0" width="36" height="37">
<path d="M36 0.720215H0V36.7202H36V0.720215Z" fill="white"/>
</mask>
<g mask="url(#mask0_2_1577)">
<path d="M25.7205 20.5029L18.6764 22.3345C18.2411 22.4477 17.7843 22.45 17.3479 22.3412L9.91683 20.4882C8.73839 20.1943 7.91138 19.1358 7.91138 17.9212V9.8026C7.91131 4.78651 11.9777 0.720215 16.9938 0.720215H18.6179C23.634 0.720215 27.7003 4.78651 27.7003 9.8026V17.9425C27.7003 19.1472 26.8864 20.1997 25.7205 20.5029Z" fill="#FD9727"/>
<path d="M18.6179 0.720215H16.9938C16.5858 0.720215 16.1843 0.747566 15.7905 0.799668C20.2378 1.38839 23.6697 5.19447 23.6697 9.8026V17.9425C23.6697 19.1472 22.8559 20.1997 21.6899 20.5029L15.9556 21.994L17.3479 22.3412C17.7844 22.45 18.2411 22.4477 18.6765 22.3345L25.7206 20.5029C26.8865 20.1997 27.7004 19.1472 27.7004 17.9424V9.8026C27.7003 4.78651 23.634 0.720215 18.6179 0.720215Z" fill="#FF6D3A"/>
<path d="M8.33174 15.4725H10.259V10.7671H8.33174C7.76552 10.7671 7.30652 11.2261 7.30652 11.7923V14.4472C7.30652 15.0135 7.76552 15.4725 8.33174 15.4725Z" fill="#3D6687"/>
<path d="M27.6682 15.4725H25.741V10.7671H27.6682C28.2345 10.7671 28.6935 11.2261 28.6935 11.7923V14.4472C28.6935 15.0135 28.2345 15.4725 27.6682 15.4725Z" fill="#3D6687"/>
<path d="M22.3518 23.6829C21.6778 23.5474 21.1928 22.9553 21.1928 22.2678V19.0142H18H14.8073V22.2678C14.8073 22.9553 14.3223 23.5474 13.6483 23.6829L12.8704 23.8393V29.0641H18H23.1297V23.8393L22.3518 23.6829Z" fill="#FED9A8"/>
<path d="M28.9993 25.4369L22.5954 23.4402C22.3966 23.3782 22.1798 23.4285 22.0287 23.5717L18 27.3896L13.9713 23.5718C13.8201 23.4286 13.6033 23.3782 13.4046 23.4402L7.00066 25.437C4.16145 26.2729 2.21204 28.8791 2.21204 31.8388V36.1051C2.21204 36.4447 2.48738 36.7201 2.82699 36.7201H33.173C33.5126 36.7201 33.788 36.4447 33.788 36.1051V31.8388C33.7879 28.879 31.8385 26.2728 28.9993 25.4369Z" fill="#FF4C4C"/>
<path d="M28.9993 25.4369L22.5954 23.4402C22.3966 23.3782 22.1799 23.4285 22.0287 23.5717L21.2756 24.2854L24.9687 25.4369C27.8079 26.2728 29.7573 28.879 29.7573 31.8388V36.72H33.173C33.5127 36.72 33.788 36.4446 33.788 36.105V31.8388C33.7879 28.879 31.8385 26.2728 28.9993 25.4369Z" fill="#EF2929"/>
<path d="M17.9999 21.7193C13.6046 21.7193 10.0415 18.1562 10.0415 13.7609V11.5243C10.0415 7.12907 13.6047 3.56592 17.9999 3.56592C22.3952 3.56592 25.9584 7.12907 25.9584 11.5243V13.7609C25.9584 18.1563 22.3953 21.7193 17.9999 21.7193Z" fill="#FED9A8"/>
<path d="M21.9278 4.60156V13.7609C21.9278 17.4599 19.4041 20.5693 15.9846 21.4617C16.6283 21.6296 17.3036 21.7194 17.9999 21.7194C22.3953 21.7194 25.9584 18.1562 25.9584 13.7609V11.5243C25.9584 8.55754 24.3348 5.97019 21.9278 4.60156Z" fill="#F4C892"/>
<path d="M13.9712 23.5721L17.9999 27.39L15.5154 28.2364C14.9066 28.4437 14.2329 28.2635 13.809 27.7798L10.736 24.2726L13.4045 23.4406C13.6034 23.3786 13.8201 23.4289 13.9712 23.5721Z" fill="#D4145A"/>
<path d="M22.0286 23.5721L17.9999 27.39L20.2517 28.1571C21.0013 28.4124 21.8309 28.1904 22.3528 27.5949L25.2638 24.2726L22.5953 23.4406C22.3964 23.3786 22.1797 23.4289 22.0286 23.5721Z" fill="#D4145A"/>
<path d="M13.2461 33.5623H9.14986C8.9224 33.5623 8.73804 33.3779 8.73804 33.1505V31.3361C8.73804 31.1087 8.9224 30.9243 9.14986 30.9243H13.2461C13.4736 30.9243 13.6579 31.1087 13.6579 31.3361V33.1505C13.658 33.3779 13.4736 33.5623 13.2461 33.5623Z" fill="#EDA558"/>
<path d="M27.7004 11.4802C27.7004 11.4802 24.2667 11.2076 23.0918 8.04929C23.0918 8.04929 14.7915 14.6946 7.91138 11.4802V9.8026C7.91138 4.78651 11.9778 0.720215 16.9938 0.720215H18.618C23.6341 0.720215 27.7004 4.78651 27.7004 9.8026V11.4802Z" fill="#FD9727"/>
<path d="M18.6179 0.720215H16.9938C16.5858 0.720215 16.1843 0.747566 15.7905 0.799668C20.0192 1.35942 23.3296 4.82814 23.6448 9.12922C25.0928 11.2728 27.7003 11.4802 27.7003 11.4802V9.8026C27.7003 4.78651 23.634 0.720215 18.6179 0.720215Z" fill="#FF6D3A"/>
<path d="M29.692 30.6616C29.3917 30.6616 29.1482 30.9051 29.1482 31.2054V36.72H30.2357V31.2054C30.2358 30.905 29.9923 30.6616 29.692 30.6616Z" fill="#D4145A"/>
<path d="M6.30796 30.6616C6.00765 30.6616 5.76416 30.9051 5.76416 31.2054V36.72H6.85168V31.2054C6.85168 30.905 6.60826 30.6616 6.30796 30.6616Z" fill="#D4145A"/>
<path d="M26.1801 15.4727V16.4646C26.1801 17.3196 25.5685 18.0452 24.7257 18.1896L19.2538 19.128C18.9581 19.1786 18.7594 19.4595 18.8101 19.7553C18.8555 20.0199 19.0852 20.2068 19.3449 20.2068C19.3755 20.2068 19.4063 20.2043 19.4374 20.1989L24.9093 19.2606C26.2752 19.0263 27.2666 17.8505 27.2666 16.4646V15.4727H26.1801Z" fill="#3D6687"/>
<path d="M19.4188 20.7297C18.9162 20.7297 18.4717 20.3681 18.3838 19.856C18.2857 19.2838 18.6701 18.7403 19.2423 18.6421L21.015 18.3381C21.5873 18.2398 22.1307 18.6243 22.2289 19.1965C22.327 19.7687 21.9426 20.3123 21.3704 20.4104L19.5977 20.7144C19.5376 20.7247 19.4777 20.7297 19.4188 20.7297Z" fill="#D4145A"/>
</g>
</g>
</g>
</g>
<defs>
<clipPath id="clip0_2_1577">
<rect width="36" height="36" fill="white" transform="translate(0 0.720215)"/>
</clipPath>
<clipPath id="clip1_2_1577">
<rect width="36" height="36" fill="white" transform="translate(0 0.720215)"/>
</clipPath>
<clipPath id="clip2_2_1577">
<rect width="36" height="36" fill="white" transform="translate(0 0.720215)"/>
</clipPath>
</defs>
</svg>

