<svg width="21" height="15" viewBox="0 0 21 15" fill="none" xmlns="http://www.w3.org/2000/svg">
<path d="M8.82393 10.5456L13.9225 7.59838L8.82393 4.65122V10.5456ZM20.1803 2.85346C20.308 3.31518 20.3964 3.93408 20.4554 4.71999C20.5242 5.5059 20.5536 6.18375 20.5536 6.77318L20.6126 7.59838C20.6126 9.74981 20.4554 11.3315 20.1803 12.3433C19.9347 13.2275 19.3649 13.7973 18.4808 14.0429C18.0191 14.1706 17.1742 14.259 15.8775 14.3179C14.6004 14.3867 13.4313 14.4162 12.3507 14.4162L10.7887 14.4751C6.67251 14.4751 4.10848 14.3179 3.09662 14.0429C2.21247 13.7973 1.64269 13.2275 1.39709 12.3433C1.26938 11.8816 1.18097 11.2627 1.12203 10.4768C1.05326 9.69087 1.02379 9.01302 1.02379 8.42359L0.964844 7.59838C0.964844 5.44696 1.12203 3.86532 1.39709 2.85346C1.64269 1.96931 2.21247 1.39953 3.09662 1.15393C3.55834 1.02622 4.4032 0.937801 5.69995 0.878861C6.97705 0.810091 8.14609 0.780623 9.22671 0.780623L10.7887 0.72168C14.9049 0.72168 17.4689 0.878861 18.4808 1.15393C19.3649 1.39953 19.9347 1.96931 20.1803 2.85346Z" fill="white"/>
</svg>
